<mxfile host="app.diagrams.net" modified="2021-10-13T01:55:41.729Z" agent="5.0 (Windows NT 10.0; Win64; x64) AppleWebKit/537.36 (KHTML, like Gecko) Chrome/94.0.4606.81 Safari/537.36" etag="yRemQP77xGyFv0-rxLXs" version="15.5.2" type="github">
  <diagram id="BAcALOq1CHbWgIsdJGq6" name="Page-1">
    <mxGraphModel dx="2844" dy="1474" grid="1" gridSize="10" guides="1" tooltips="1" connect="1" arrows="1" fold="1" page="1" pageScale="1" pageWidth="3000" pageHeight="3000" math="0" shadow="0">
      <root>
        <mxCell id="0" />
        <mxCell id="1" parent="0" />
        <mxCell id="Uh_I8GXraJDkrsIi5zB0-81" value="" style="rounded=0;whiteSpace=wrap;html=1;fillColor=none;" vertex="1" parent="1">
          <mxGeometry x="440" y="150" width="890" height="1440" as="geometry" />
        </mxCell>
        <mxCell id="Uh_I8GXraJDkrsIi5zB0-203" style="edgeStyle=orthogonalEdgeStyle;rounded=0;orthogonalLoop=1;jettySize=auto;html=1;exitX=0.5;exitY=0.5;exitDx=0;exitDy=0;exitPerimeter=0;entryX=0.5;entryY=0;entryDx=0;entryDy=0;fontFamily=Helvetica;fontSize=16;" edge="1" parent="1" source="Uh_I8GXraJDkrsIi5zB0-43" target="Uh_I8GXraJDkrsIi5zB0-62">
          <mxGeometry relative="1" as="geometry">
            <Array as="points">
              <mxPoint x="400" y="458" />
              <mxPoint x="400" y="190" />
              <mxPoint x="845" y="190" />
            </Array>
          </mxGeometry>
        </mxCell>
        <mxCell id="Uh_I8GXraJDkrsIi5zB0-204" style="edgeStyle=orthogonalEdgeStyle;rounded=0;orthogonalLoop=1;jettySize=auto;html=1;exitX=0.5;exitY=0.5;exitDx=0;exitDy=0;exitPerimeter=0;entryX=0.5;entryY=0;entryDx=0;entryDy=0;fontFamily=Helvetica;fontSize=16;" edge="1" parent="1" source="Uh_I8GXraJDkrsIi5zB0-43" target="Uh_I8GXraJDkrsIi5zB0-59">
          <mxGeometry relative="1" as="geometry">
            <Array as="points">
              <mxPoint x="400" y="458" />
              <mxPoint x="400" y="190" />
              <mxPoint x="935" y="190" />
            </Array>
          </mxGeometry>
        </mxCell>
        <mxCell id="Uh_I8GXraJDkrsIi5zB0-205" style="edgeStyle=orthogonalEdgeStyle;rounded=0;orthogonalLoop=1;jettySize=auto;html=1;exitX=0.5;exitY=0.5;exitDx=0;exitDy=0;exitPerimeter=0;entryX=0.5;entryY=0;entryDx=0;entryDy=0;fontFamily=Helvetica;fontSize=16;" edge="1" parent="1" source="Uh_I8GXraJDkrsIi5zB0-43" target="Uh_I8GXraJDkrsIi5zB0-61">
          <mxGeometry relative="1" as="geometry">
            <Array as="points">
              <mxPoint x="400" y="458" />
              <mxPoint x="400" y="190" />
              <mxPoint x="1025" y="190" />
            </Array>
          </mxGeometry>
        </mxCell>
        <mxCell id="Uh_I8GXraJDkrsIi5zB0-206" style="edgeStyle=orthogonalEdgeStyle;rounded=0;orthogonalLoop=1;jettySize=auto;html=1;exitX=0.5;exitY=0.5;exitDx=0;exitDy=0;exitPerimeter=0;entryX=0.5;entryY=0;entryDx=0;entryDy=0;fontFamily=Helvetica;fontSize=16;" edge="1" parent="1" source="Uh_I8GXraJDkrsIi5zB0-43" target="Uh_I8GXraJDkrsIi5zB0-60">
          <mxGeometry relative="1" as="geometry">
            <Array as="points">
              <mxPoint x="400" y="458" />
              <mxPoint x="400" y="190" />
              <mxPoint x="1115" y="190" />
            </Array>
          </mxGeometry>
        </mxCell>
        <mxCell id="Uh_I8GXraJDkrsIi5zB0-300" style="edgeStyle=none;rounded=0;orthogonalLoop=1;jettySize=auto;html=1;exitX=0.5;exitY=0.5;exitDx=0;exitDy=0;exitPerimeter=0;entryX=0.5;entryY=0;entryDx=0;entryDy=0;fontFamily=Helvetica;fontSize=16;" edge="1" parent="1" source="Uh_I8GXraJDkrsIi5zB0-43" target="Uh_I8GXraJDkrsIi5zB0-221">
          <mxGeometry relative="1" as="geometry" />
        </mxCell>
        <mxCell id="Uh_I8GXraJDkrsIi5zB0-303" style="edgeStyle=none;rounded=0;orthogonalLoop=1;jettySize=auto;html=1;exitX=0.5;exitY=0.5;exitDx=0;exitDy=0;exitPerimeter=0;entryX=0;entryY=0.5;entryDx=0;entryDy=0;fontFamily=Helvetica;fontSize=16;" edge="1" parent="1" source="Uh_I8GXraJDkrsIi5zB0-43" target="Uh_I8GXraJDkrsIi5zB0-45">
          <mxGeometry relative="1" as="geometry" />
        </mxCell>
        <UserObject label="Admin" lucidchartObjectId=".Q4MOHSBDm2E" id="Uh_I8GXraJDkrsIi5zB0-43">
          <mxCell style="html=1;overflow=block;blockSpacing=1;whiteSpace=wrap;shape=umlActor;labelPosition=center;verticalLabelPosition=bottom;verticalAlign=top;whiteSpace=nowrap;whiteSpace=wrap;fontSize=13.3;fontColor=#333333;fontStyle=2;spacing=0;strokeColor=#333333;strokeOpacity=100;rounded=1;absoluteArcSize=1;arcSize=7.5;fillColor=#ffffff;strokeWidth=0.8;" vertex="1" parent="1">
            <mxGeometry x="255" y="390" width="65" height="135" as="geometry" />
          </mxCell>
        </UserObject>
        <mxCell id="Uh_I8GXraJDkrsIi5zB0-176" style="edgeStyle=orthogonalEdgeStyle;rounded=0;orthogonalLoop=1;jettySize=auto;html=1;exitX=0.5;exitY=0.5;exitDx=0;exitDy=0;exitPerimeter=0;entryX=0.5;entryY=0;entryDx=0;entryDy=0;fontFamily=Helvetica;fontSize=16;" edge="1" parent="1" source="Uh_I8GXraJDkrsIi5zB0-44" target="Uh_I8GXraJDkrsIi5zB0-83">
          <mxGeometry relative="1" as="geometry">
            <Array as="points">
              <mxPoint x="287" y="680" />
              <mxPoint x="760" y="680" />
              <mxPoint x="760" y="840" />
              <mxPoint x="1214" y="840" />
            </Array>
          </mxGeometry>
        </mxCell>
        <mxCell id="Uh_I8GXraJDkrsIi5zB0-177" style="edgeStyle=orthogonalEdgeStyle;rounded=0;orthogonalLoop=1;jettySize=auto;html=1;exitX=0.5;exitY=0.5;exitDx=0;exitDy=0;exitPerimeter=0;entryX=0.5;entryY=0;entryDx=0;entryDy=0;fontFamily=Helvetica;fontSize=16;" edge="1" parent="1" source="Uh_I8GXraJDkrsIi5zB0-44" target="Uh_I8GXraJDkrsIi5zB0-77">
          <mxGeometry relative="1" as="geometry">
            <Array as="points">
              <mxPoint x="287" y="680" />
              <mxPoint x="760" y="680" />
              <mxPoint x="760" y="840" />
              <mxPoint x="1124" y="840" />
            </Array>
          </mxGeometry>
        </mxCell>
        <mxCell id="Uh_I8GXraJDkrsIi5zB0-178" style="edgeStyle=orthogonalEdgeStyle;rounded=0;orthogonalLoop=1;jettySize=auto;html=1;exitX=0.5;exitY=0.5;exitDx=0;exitDy=0;exitPerimeter=0;entryX=0.5;entryY=0;entryDx=0;entryDy=0;fontFamily=Helvetica;fontSize=16;" edge="1" parent="1" source="Uh_I8GXraJDkrsIi5zB0-44" target="Uh_I8GXraJDkrsIi5zB0-80">
          <mxGeometry relative="1" as="geometry">
            <Array as="points">
              <mxPoint x="287" y="680" />
              <mxPoint x="760" y="680" />
              <mxPoint x="760" y="840" />
              <mxPoint x="935" y="840" />
            </Array>
          </mxGeometry>
        </mxCell>
        <mxCell id="Uh_I8GXraJDkrsIi5zB0-179" style="edgeStyle=orthogonalEdgeStyle;rounded=0;orthogonalLoop=1;jettySize=auto;html=1;exitX=0.5;exitY=0.5;exitDx=0;exitDy=0;exitPerimeter=0;entryX=0.5;entryY=0;entryDx=0;entryDy=0;fontFamily=Helvetica;fontSize=16;" edge="1" parent="1" source="Uh_I8GXraJDkrsIi5zB0-44" target="Uh_I8GXraJDkrsIi5zB0-75">
          <mxGeometry relative="1" as="geometry">
            <Array as="points">
              <mxPoint x="287" y="680" />
              <mxPoint x="760" y="680" />
              <mxPoint x="760" y="840" />
              <mxPoint x="845" y="840" />
            </Array>
          </mxGeometry>
        </mxCell>
        <mxCell id="Uh_I8GXraJDkrsIi5zB0-182" style="edgeStyle=orthogonalEdgeStyle;rounded=0;orthogonalLoop=1;jettySize=auto;html=1;exitX=0.5;exitY=0.5;exitDx=0;exitDy=0;exitPerimeter=0;entryX=0.5;entryY=0;entryDx=0;entryDy=0;fontFamily=Helvetica;fontSize=16;" edge="1" parent="1" source="Uh_I8GXraJDkrsIi5zB0-44" target="Uh_I8GXraJDkrsIi5zB0-74">
          <mxGeometry relative="1" as="geometry">
            <Array as="points">
              <mxPoint x="287" y="680" />
              <mxPoint x="760" y="680" />
              <mxPoint x="760" y="710" />
              <mxPoint x="1115" y="710" />
            </Array>
          </mxGeometry>
        </mxCell>
        <mxCell id="Uh_I8GXraJDkrsIi5zB0-183" style="edgeStyle=orthogonalEdgeStyle;rounded=0;orthogonalLoop=1;jettySize=auto;html=1;exitX=0.5;exitY=0.5;exitDx=0;exitDy=0;exitPerimeter=0;entryX=0.5;entryY=0;entryDx=0;entryDy=0;fontFamily=Helvetica;fontSize=16;" edge="1" parent="1" source="Uh_I8GXraJDkrsIi5zB0-44" target="Uh_I8GXraJDkrsIi5zB0-73">
          <mxGeometry relative="1" as="geometry">
            <Array as="points">
              <mxPoint x="287" y="680" />
              <mxPoint x="760" y="680" />
              <mxPoint x="760" y="710" />
              <mxPoint x="1025" y="710" />
            </Array>
          </mxGeometry>
        </mxCell>
        <mxCell id="Uh_I8GXraJDkrsIi5zB0-185" style="edgeStyle=orthogonalEdgeStyle;rounded=0;orthogonalLoop=1;jettySize=auto;html=1;exitX=0.5;exitY=0.5;exitDx=0;exitDy=0;exitPerimeter=0;entryX=0.5;entryY=0;entryDx=0;entryDy=0;fontFamily=Helvetica;fontSize=16;" edge="1" parent="1" source="Uh_I8GXraJDkrsIi5zB0-44" target="Uh_I8GXraJDkrsIi5zB0-72">
          <mxGeometry relative="1" as="geometry">
            <Array as="points">
              <mxPoint x="287" y="680" />
              <mxPoint x="760" y="680" />
              <mxPoint x="760" y="710" />
              <mxPoint x="935" y="710" />
            </Array>
          </mxGeometry>
        </mxCell>
        <mxCell id="Uh_I8GXraJDkrsIi5zB0-186" style="edgeStyle=orthogonalEdgeStyle;rounded=0;orthogonalLoop=1;jettySize=auto;html=1;exitX=0.5;exitY=0.5;exitDx=0;exitDy=0;exitPerimeter=0;entryX=0.5;entryY=0;entryDx=0;entryDy=0;fontFamily=Helvetica;fontSize=16;" edge="1" parent="1" source="Uh_I8GXraJDkrsIi5zB0-44" target="Uh_I8GXraJDkrsIi5zB0-103">
          <mxGeometry relative="1" as="geometry">
            <Array as="points">
              <mxPoint x="287" y="680" />
              <mxPoint x="760" y="680" />
              <mxPoint x="760" y="710" />
              <mxPoint x="845" y="710" />
            </Array>
          </mxGeometry>
        </mxCell>
        <mxCell id="Uh_I8GXraJDkrsIi5zB0-187" style="edgeStyle=orthogonalEdgeStyle;rounded=0;orthogonalLoop=1;jettySize=auto;html=1;exitX=0.5;exitY=0.5;exitDx=0;exitDy=0;exitPerimeter=0;entryX=0.5;entryY=0;entryDx=0;entryDy=0;fontFamily=Helvetica;fontSize=16;" edge="1" parent="1" source="Uh_I8GXraJDkrsIi5zB0-44" target="Uh_I8GXraJDkrsIi5zB0-112">
          <mxGeometry relative="1" as="geometry">
            <Array as="points">
              <mxPoint x="287" y="680" />
              <mxPoint x="760" y="680" />
              <mxPoint x="760" y="590" />
              <mxPoint x="1205" y="590" />
            </Array>
          </mxGeometry>
        </mxCell>
        <mxCell id="Uh_I8GXraJDkrsIi5zB0-188" style="edgeStyle=orthogonalEdgeStyle;rounded=0;orthogonalLoop=1;jettySize=auto;html=1;exitX=0.5;exitY=0.5;exitDx=0;exitDy=0;exitPerimeter=0;entryX=0.5;entryY=0;entryDx=0;entryDy=0;fontFamily=Helvetica;fontSize=16;" edge="1" parent="1" source="Uh_I8GXraJDkrsIi5zB0-44" target="Uh_I8GXraJDkrsIi5zB0-79">
          <mxGeometry relative="1" as="geometry">
            <Array as="points">
              <mxPoint x="287" y="680" />
              <mxPoint x="760" y="680" />
              <mxPoint x="760" y="590" />
              <mxPoint x="1115" y="590" />
            </Array>
          </mxGeometry>
        </mxCell>
        <mxCell id="Uh_I8GXraJDkrsIi5zB0-189" style="edgeStyle=orthogonalEdgeStyle;rounded=0;orthogonalLoop=1;jettySize=auto;html=1;exitX=0.5;exitY=0.5;exitDx=0;exitDy=0;exitPerimeter=0;entryX=0.5;entryY=0;entryDx=0;entryDy=0;fontFamily=Helvetica;fontSize=16;" edge="1" parent="1" source="Uh_I8GXraJDkrsIi5zB0-44" target="Uh_I8GXraJDkrsIi5zB0-139">
          <mxGeometry relative="1" as="geometry">
            <Array as="points">
              <mxPoint x="287" y="680" />
              <mxPoint x="760" y="680" />
              <mxPoint x="760" y="590" />
              <mxPoint x="1025" y="590" />
            </Array>
          </mxGeometry>
        </mxCell>
        <mxCell id="Uh_I8GXraJDkrsIi5zB0-190" style="edgeStyle=orthogonalEdgeStyle;rounded=0;orthogonalLoop=1;jettySize=auto;html=1;exitX=0.5;exitY=0.5;exitDx=0;exitDy=0;exitPerimeter=0;entryX=0.5;entryY=0;entryDx=0;entryDy=0;fontFamily=Helvetica;fontSize=16;" edge="1" parent="1" source="Uh_I8GXraJDkrsIi5zB0-44" target="Uh_I8GXraJDkrsIi5zB0-138">
          <mxGeometry relative="1" as="geometry">
            <Array as="points">
              <mxPoint x="287" y="680" />
              <mxPoint x="760" y="680" />
              <mxPoint x="760" y="590" />
              <mxPoint x="935" y="590" />
            </Array>
          </mxGeometry>
        </mxCell>
        <mxCell id="Uh_I8GXraJDkrsIi5zB0-191" style="edgeStyle=orthogonalEdgeStyle;rounded=0;orthogonalLoop=1;jettySize=auto;html=1;exitX=0.5;exitY=0.5;exitDx=0;exitDy=0;exitPerimeter=0;entryX=0.5;entryY=0;entryDx=0;entryDy=0;fontFamily=Helvetica;fontSize=16;" edge="1" parent="1" source="Uh_I8GXraJDkrsIi5zB0-44" target="Uh_I8GXraJDkrsIi5zB0-137">
          <mxGeometry relative="1" as="geometry">
            <Array as="points">
              <mxPoint x="287" y="680" />
              <mxPoint x="760" y="680" />
              <mxPoint x="760" y="590" />
              <mxPoint x="845" y="590" />
            </Array>
          </mxGeometry>
        </mxCell>
        <mxCell id="Uh_I8GXraJDkrsIi5zB0-192" style="edgeStyle=orthogonalEdgeStyle;rounded=0;orthogonalLoop=1;jettySize=auto;html=1;exitX=0.5;exitY=0.5;exitDx=0;exitDy=0;exitPerimeter=0;entryX=0.5;entryY=0;entryDx=0;entryDy=0;fontFamily=Helvetica;fontSize=16;" edge="1" parent="1" source="Uh_I8GXraJDkrsIi5zB0-44" target="Uh_I8GXraJDkrsIi5zB0-116">
          <mxGeometry relative="1" as="geometry">
            <Array as="points">
              <mxPoint x="287" y="680" />
              <mxPoint x="760" y="680" />
              <mxPoint x="760" y="470" />
              <mxPoint x="1205" y="470" />
            </Array>
          </mxGeometry>
        </mxCell>
        <mxCell id="Uh_I8GXraJDkrsIi5zB0-194" style="edgeStyle=orthogonalEdgeStyle;rounded=0;orthogonalLoop=1;jettySize=auto;html=1;exitX=0.5;exitY=0.5;exitDx=0;exitDy=0;exitPerimeter=0;entryX=0.5;entryY=0;entryDx=0;entryDy=0;fontFamily=Helvetica;fontSize=16;" edge="1" parent="1" source="Uh_I8GXraJDkrsIi5zB0-44" target="Uh_I8GXraJDkrsIi5zB0-102">
          <mxGeometry relative="1" as="geometry">
            <Array as="points">
              <mxPoint x="287" y="680" />
              <mxPoint x="760" y="680" />
              <mxPoint x="760" y="470" />
              <mxPoint x="1115" y="470" />
            </Array>
          </mxGeometry>
        </mxCell>
        <mxCell id="Uh_I8GXraJDkrsIi5zB0-195" style="edgeStyle=orthogonalEdgeStyle;rounded=0;orthogonalLoop=1;jettySize=auto;html=1;exitX=0.5;exitY=0.5;exitDx=0;exitDy=0;exitPerimeter=0;entryX=0.5;entryY=0;entryDx=0;entryDy=0;fontFamily=Helvetica;fontSize=16;" edge="1" parent="1" source="Uh_I8GXraJDkrsIi5zB0-44" target="Uh_I8GXraJDkrsIi5zB0-100">
          <mxGeometry relative="1" as="geometry">
            <Array as="points">
              <mxPoint x="287" y="680" />
              <mxPoint x="760" y="680" />
              <mxPoint x="760" y="470" />
              <mxPoint x="1025" y="470" />
            </Array>
          </mxGeometry>
        </mxCell>
        <mxCell id="Uh_I8GXraJDkrsIi5zB0-196" style="edgeStyle=orthogonalEdgeStyle;rounded=0;orthogonalLoop=1;jettySize=auto;html=1;exitX=0.5;exitY=0.5;exitDx=0;exitDy=0;exitPerimeter=0;entryX=0.5;entryY=0;entryDx=0;entryDy=0;fontFamily=Helvetica;fontSize=16;" edge="1" parent="1" source="Uh_I8GXraJDkrsIi5zB0-44" target="Uh_I8GXraJDkrsIi5zB0-71">
          <mxGeometry relative="1" as="geometry">
            <Array as="points">
              <mxPoint x="287" y="680" />
              <mxPoint x="760" y="680" />
              <mxPoint x="760" y="470" />
              <mxPoint x="935" y="470" />
            </Array>
          </mxGeometry>
        </mxCell>
        <mxCell id="Uh_I8GXraJDkrsIi5zB0-197" style="edgeStyle=orthogonalEdgeStyle;rounded=0;orthogonalLoop=1;jettySize=auto;html=1;exitX=0.5;exitY=0.5;exitDx=0;exitDy=0;exitPerimeter=0;entryX=0.5;entryY=0;entryDx=0;entryDy=0;fontFamily=Helvetica;fontSize=16;" edge="1" parent="1" source="Uh_I8GXraJDkrsIi5zB0-44" target="Uh_I8GXraJDkrsIi5zB0-101">
          <mxGeometry relative="1" as="geometry">
            <Array as="points">
              <mxPoint x="287" y="680" />
              <mxPoint x="760" y="680" />
              <mxPoint x="760" y="470" />
              <mxPoint x="845" y="470" />
            </Array>
          </mxGeometry>
        </mxCell>
        <mxCell id="Uh_I8GXraJDkrsIi5zB0-199" style="edgeStyle=orthogonalEdgeStyle;rounded=0;orthogonalLoop=1;jettySize=auto;html=1;exitX=0.5;exitY=0.5;exitDx=0;exitDy=0;exitPerimeter=0;entryX=0.5;entryY=0;entryDx=0;entryDy=0;fontFamily=Helvetica;fontSize=16;" edge="1" parent="1" source="Uh_I8GXraJDkrsIi5zB0-44" target="Uh_I8GXraJDkrsIi5zB0-111">
          <mxGeometry relative="1" as="geometry">
            <Array as="points">
              <mxPoint x="287" y="680" />
              <mxPoint x="760" y="680" />
              <mxPoint x="760" y="710" />
              <mxPoint x="1205" y="710" />
            </Array>
          </mxGeometry>
        </mxCell>
        <mxCell id="Uh_I8GXraJDkrsIi5zB0-299" style="edgeStyle=none;rounded=0;orthogonalLoop=1;jettySize=auto;html=1;exitX=0.5;exitY=0.5;exitDx=0;exitDy=0;exitPerimeter=0;entryX=0;entryY=0.5;entryDx=0;entryDy=0;fontFamily=Helvetica;fontSize=16;" edge="1" parent="1" source="Uh_I8GXraJDkrsIi5zB0-44" target="Uh_I8GXraJDkrsIi5zB0-221">
          <mxGeometry relative="1" as="geometry" />
        </mxCell>
        <mxCell id="Uh_I8GXraJDkrsIi5zB0-302" style="edgeStyle=none;rounded=0;orthogonalLoop=1;jettySize=auto;html=1;exitX=0.5;exitY=0.5;exitDx=0;exitDy=0;exitPerimeter=0;entryX=0;entryY=1;entryDx=0;entryDy=0;fontFamily=Helvetica;fontSize=16;" edge="1" parent="1" source="Uh_I8GXraJDkrsIi5zB0-44" target="Uh_I8GXraJDkrsIi5zB0-45">
          <mxGeometry relative="1" as="geometry" />
        </mxCell>
        <UserObject label="Trainer" lucidchartObjectId=".Q4MG143k2o2" id="Uh_I8GXraJDkrsIi5zB0-44">
          <mxCell style="html=1;overflow=block;blockSpacing=1;whiteSpace=wrap;shape=umlActor;labelPosition=center;verticalLabelPosition=bottom;verticalAlign=top;whiteSpace=nowrap;whiteSpace=wrap;fontSize=13.3;fontColor=#333333;fontStyle=2;spacing=0;strokeColor=#333333;strokeOpacity=100;rounded=1;absoluteArcSize=1;arcSize=7.5;fillColor=#ffffff;strokeWidth=0.8;" vertex="1" parent="1">
            <mxGeometry x="252.5" y="620" width="70" height="135" as="geometry" />
          </mxCell>
        </UserObject>
        <UserObject label="Login" lucidchartObjectId=".Q4MeaXKLHhP" id="Uh_I8GXraJDkrsIi5zB0-45">
          <mxCell style="html=1;overflow=block;blockSpacing=1;whiteSpace=wrap;ellipse;whiteSpace=wrap;fontSize=13.3;fontColor=#ffffff;fontStyle=2;align=center;spacing=0;verticalAlign=middle;strokeColor=#ffffff;strokeOpacity=100;fillOpacity=100;rounded=1;absoluteArcSize=1;arcSize=7.5;fillColor=#3278cc;strokeWidth=0.8;" vertex="1" parent="1">
            <mxGeometry x="542.5" y="370" width="90" height="60" as="geometry" />
          </mxCell>
        </UserObject>
        <mxCell id="Uh_I8GXraJDkrsIi5zB0-47" value="" style="group;dropTarget=0;" vertex="1" parent="1">
          <mxGeometry x="542.5" y="90" width="640" height="45" as="geometry" />
        </mxCell>
        <UserObject label="%filename%" placeholders="1" lucidchartObjectId="574B.V.jTPgA" id="Uh_I8GXraJDkrsIi5zB0-48">
          <mxCell style="points=[[0.323,0.967,0],[0.688,0.967,0]];html=1;overflow=block;blockSpacing=1;whiteSpace=wrap;;whiteSpace=wrap;fontSize=19.7;fontColor=#a9afb8;fontStyle=1;align=center;spacingLeft=7;spacingRight=7;spacingTop=2;spacing=3;strokeOpacity=0;fillOpacity=0;rounded=1;absoluteArcSize=1;arcSize=12;fillColor=#ffffff;strokeWidth=1.5;" vertex="1" parent="Uh_I8GXraJDkrsIi5zB0-47">
            <mxGeometry width="640" height="31" as="geometry" />
          </mxCell>
        </UserObject>
        <UserObject label="%creatorName%  |  %date{mmmm d, yyyy}%" placeholders="1" lucidchartObjectId="574BS.99andx" id="Uh_I8GXraJDkrsIi5zB0-49">
          <mxCell style="html=1;overflow=block;blockSpacing=1;whiteSpace=wrap;;whiteSpace=wrap;fontSize=11.5;fontColor=#a9afb8;align=center;spacingLeft=7;spacingRight=7;spacingTop=2;spacing=3;strokeOpacity=0;fillOpacity=0;rounded=1;absoluteArcSize=1;arcSize=12;fillColor=#ffffff;strokeWidth=1.5;" vertex="1" parent="Uh_I8GXraJDkrsIi5zB0-47">
            <mxGeometry y="31" width="640" height="14" as="geometry" />
          </mxCell>
        </UserObject>
        <UserObject label="" lucidchartObjectId="574BI-b6ZqHU" id="Uh_I8GXraJDkrsIi5zB0-50">
          <mxCell style="html=1;jettySize=18;whiteSpace=wrap;fontSize=13;fontFamily=Helvetica;strokeColor=#a9afb8;strokeOpacity=100;strokeWidth=1.5;rounded=0;startArrow=none;;endArrow=none;;exitX=0.323;exitY=0.967;exitPerimeter=0;entryX=0.688;entryY=0.967;entryPerimeter=0;" edge="1" parent="Uh_I8GXraJDkrsIi5zB0-47" source="Uh_I8GXraJDkrsIi5zB0-48" target="Uh_I8GXraJDkrsIi5zB0-48">
            <mxGeometry width="100" height="100" relative="1" as="geometry">
              <Array as="points">
                <mxPoint x="207" y="50" generated="1" />
                <mxPoint x="440" y="50" generated="1" />
              </Array>
            </mxGeometry>
          </mxCell>
        </UserObject>
        <mxCell id="Uh_I8GXraJDkrsIi5zB0-159" style="edgeStyle=orthogonalEdgeStyle;rounded=0;orthogonalLoop=1;jettySize=auto;html=1;exitX=0.5;exitY=0.5;exitDx=0;exitDy=0;exitPerimeter=0;fontFamily=Helvetica;fontSize=16;" edge="1" parent="1" source="Uh_I8GXraJDkrsIi5zB0-51" target="Uh_I8GXraJDkrsIi5zB0-96">
          <mxGeometry relative="1" as="geometry">
            <Array as="points">
              <mxPoint x="760" y="910" />
              <mxPoint x="760" y="1270" />
              <mxPoint x="845" y="1270" />
            </Array>
          </mxGeometry>
        </mxCell>
        <mxCell id="Uh_I8GXraJDkrsIi5zB0-160" style="edgeStyle=orthogonalEdgeStyle;rounded=0;orthogonalLoop=1;jettySize=auto;html=1;exitX=0.5;exitY=0.5;exitDx=0;exitDy=0;exitPerimeter=0;entryX=0.5;entryY=0;entryDx=0;entryDy=0;fontFamily=Helvetica;fontSize=16;" edge="1" parent="1" source="Uh_I8GXraJDkrsIi5zB0-51" target="Uh_I8GXraJDkrsIi5zB0-97">
          <mxGeometry relative="1" as="geometry">
            <Array as="points">
              <mxPoint x="760" y="910" />
              <mxPoint x="760" y="1270" />
              <mxPoint x="935" y="1270" />
            </Array>
          </mxGeometry>
        </mxCell>
        <mxCell id="Uh_I8GXraJDkrsIi5zB0-161" style="edgeStyle=orthogonalEdgeStyle;rounded=0;orthogonalLoop=1;jettySize=auto;html=1;exitX=0.5;exitY=0.5;exitDx=0;exitDy=0;exitPerimeter=0;entryX=0.5;entryY=0;entryDx=0;entryDy=0;fontFamily=Helvetica;fontSize=16;" edge="1" parent="1" source="Uh_I8GXraJDkrsIi5zB0-51" target="Uh_I8GXraJDkrsIi5zB0-98">
          <mxGeometry relative="1" as="geometry">
            <Array as="points">
              <mxPoint x="760" y="910" />
              <mxPoint x="760" y="1270" />
              <mxPoint x="1025" y="1270" />
            </Array>
          </mxGeometry>
        </mxCell>
        <mxCell id="Uh_I8GXraJDkrsIi5zB0-162" style="edgeStyle=orthogonalEdgeStyle;rounded=0;orthogonalLoop=1;jettySize=auto;html=1;exitX=0.5;exitY=0.5;exitDx=0;exitDy=0;exitPerimeter=0;entryX=0.5;entryY=0;entryDx=0;entryDy=0;fontFamily=Helvetica;fontSize=16;" edge="1" parent="1" source="Uh_I8GXraJDkrsIi5zB0-51" target="Uh_I8GXraJDkrsIi5zB0-99">
          <mxGeometry relative="1" as="geometry">
            <Array as="points">
              <mxPoint x="760" y="910" />
              <mxPoint x="760" y="1270" />
              <mxPoint x="1115" y="1270" />
            </Array>
          </mxGeometry>
        </mxCell>
        <mxCell id="Uh_I8GXraJDkrsIi5zB0-164" style="edgeStyle=orthogonalEdgeStyle;rounded=0;orthogonalLoop=1;jettySize=auto;html=1;exitX=0.5;exitY=0.5;exitDx=0;exitDy=0;exitPerimeter=0;entryX=0.5;entryY=0;entryDx=0;entryDy=0;fontFamily=Helvetica;fontSize=16;" edge="1" parent="1" source="Uh_I8GXraJDkrsIi5zB0-51" target="Uh_I8GXraJDkrsIi5zB0-87">
          <mxGeometry relative="1" as="geometry">
            <Array as="points">
              <mxPoint x="760" y="910" />
              <mxPoint x="760" y="1140" />
              <mxPoint x="845" y="1140" />
            </Array>
          </mxGeometry>
        </mxCell>
        <mxCell id="Uh_I8GXraJDkrsIi5zB0-165" style="edgeStyle=orthogonalEdgeStyle;rounded=0;orthogonalLoop=1;jettySize=auto;html=1;exitX=0.5;exitY=0.5;exitDx=0;exitDy=0;exitPerimeter=0;entryX=0.5;entryY=0;entryDx=0;entryDy=0;fontFamily=Helvetica;fontSize=16;" edge="1" parent="1" source="Uh_I8GXraJDkrsIi5zB0-51" target="Uh_I8GXraJDkrsIi5zB0-88">
          <mxGeometry relative="1" as="geometry">
            <Array as="points">
              <mxPoint x="760" y="910" />
              <mxPoint x="760" y="1140" />
              <mxPoint x="935" y="1140" />
            </Array>
          </mxGeometry>
        </mxCell>
        <mxCell id="Uh_I8GXraJDkrsIi5zB0-166" style="edgeStyle=orthogonalEdgeStyle;rounded=0;orthogonalLoop=1;jettySize=auto;html=1;exitX=0.5;exitY=0.5;exitDx=0;exitDy=0;exitPerimeter=0;entryX=0.5;entryY=0;entryDx=0;entryDy=0;fontFamily=Helvetica;fontSize=16;" edge="1" parent="1" source="Uh_I8GXraJDkrsIi5zB0-51" target="Uh_I8GXraJDkrsIi5zB0-86">
          <mxGeometry relative="1" as="geometry">
            <Array as="points">
              <mxPoint x="760" y="910" />
              <mxPoint x="760" y="1140" />
              <mxPoint x="1115" y="1140" />
            </Array>
          </mxGeometry>
        </mxCell>
        <mxCell id="Uh_I8GXraJDkrsIi5zB0-167" style="edgeStyle=orthogonalEdgeStyle;rounded=0;orthogonalLoop=1;jettySize=auto;html=1;exitX=0.5;exitY=0.5;exitDx=0;exitDy=0;exitPerimeter=0;entryX=0.5;entryY=0;entryDx=0;entryDy=0;fontFamily=Helvetica;fontSize=16;" edge="1" parent="1" source="Uh_I8GXraJDkrsIi5zB0-51" target="Uh_I8GXraJDkrsIi5zB0-84">
          <mxGeometry relative="1" as="geometry">
            <Array as="points">
              <mxPoint x="760" y="910" />
              <mxPoint x="760" y="1000" />
              <mxPoint x="845" y="1000" />
            </Array>
          </mxGeometry>
        </mxCell>
        <mxCell id="Uh_I8GXraJDkrsIi5zB0-168" style="edgeStyle=orthogonalEdgeStyle;rounded=0;orthogonalLoop=1;jettySize=auto;html=1;exitX=0.5;exitY=0.5;exitDx=0;exitDy=0;exitPerimeter=0;entryX=0.5;entryY=0;entryDx=0;entryDy=0;fontFamily=Helvetica;fontSize=16;" edge="1" parent="1" source="Uh_I8GXraJDkrsIi5zB0-51" target="Uh_I8GXraJDkrsIi5zB0-85">
          <mxGeometry relative="1" as="geometry">
            <Array as="points">
              <mxPoint x="760" y="910" />
              <mxPoint x="760" y="1000" />
              <mxPoint x="935" y="1000" />
            </Array>
          </mxGeometry>
        </mxCell>
        <mxCell id="Uh_I8GXraJDkrsIi5zB0-169" style="edgeStyle=orthogonalEdgeStyle;rounded=0;orthogonalLoop=1;jettySize=auto;html=1;exitX=0.5;exitY=0.5;exitDx=0;exitDy=0;exitPerimeter=0;entryX=0.5;entryY=0;entryDx=0;entryDy=0;fontFamily=Helvetica;fontSize=16;" edge="1" parent="1" source="Uh_I8GXraJDkrsIi5zB0-51" target="Uh_I8GXraJDkrsIi5zB0-94">
          <mxGeometry relative="1" as="geometry">
            <Array as="points">
              <mxPoint x="760" y="910" />
              <mxPoint x="760" y="1000" />
              <mxPoint x="1025" y="1000" />
            </Array>
          </mxGeometry>
        </mxCell>
        <mxCell id="Uh_I8GXraJDkrsIi5zB0-170" style="edgeStyle=orthogonalEdgeStyle;rounded=0;orthogonalLoop=1;jettySize=auto;html=1;exitX=0.5;exitY=0.5;exitDx=0;exitDy=0;exitPerimeter=0;entryX=0.5;entryY=0;entryDx=0;entryDy=0;fontFamily=Helvetica;fontSize=16;" edge="1" parent="1" source="Uh_I8GXraJDkrsIi5zB0-51" target="Uh_I8GXraJDkrsIi5zB0-95">
          <mxGeometry relative="1" as="geometry">
            <Array as="points">
              <mxPoint x="760" y="910" />
              <mxPoint x="760" y="1000" />
              <mxPoint x="1115" y="1000" />
            </Array>
          </mxGeometry>
        </mxCell>
        <mxCell id="Uh_I8GXraJDkrsIi5zB0-171" style="edgeStyle=orthogonalEdgeStyle;rounded=0;orthogonalLoop=1;jettySize=auto;html=1;exitX=0.5;exitY=0.5;exitDx=0;exitDy=0;exitPerimeter=0;entryX=0;entryY=0.5;entryDx=0;entryDy=0;fontFamily=Helvetica;fontSize=16;" edge="1" parent="1" source="Uh_I8GXraJDkrsIi5zB0-51" target="Uh_I8GXraJDkrsIi5zB0-75">
          <mxGeometry relative="1" as="geometry">
            <Array as="points">
              <mxPoint x="800" y="910" />
            </Array>
          </mxGeometry>
        </mxCell>
        <mxCell id="Uh_I8GXraJDkrsIi5zB0-298" style="edgeStyle=none;rounded=0;orthogonalLoop=1;jettySize=auto;html=1;exitX=0.5;exitY=0.5;exitDx=0;exitDy=0;exitPerimeter=0;entryX=0;entryY=1;entryDx=0;entryDy=0;fontFamily=Helvetica;fontSize=16;" edge="1" parent="1" source="Uh_I8GXraJDkrsIi5zB0-51" target="Uh_I8GXraJDkrsIi5zB0-221">
          <mxGeometry relative="1" as="geometry" />
        </mxCell>
        <mxCell id="Uh_I8GXraJDkrsIi5zB0-301" style="edgeStyle=none;rounded=0;orthogonalLoop=1;jettySize=auto;html=1;exitX=0.5;exitY=0.5;exitDx=0;exitDy=0;exitPerimeter=0;entryX=0.5;entryY=1;entryDx=0;entryDy=0;fontFamily=Helvetica;fontSize=16;" edge="1" parent="1" source="Uh_I8GXraJDkrsIi5zB0-51" target="Uh_I8GXraJDkrsIi5zB0-45">
          <mxGeometry relative="1" as="geometry" />
        </mxCell>
        <UserObject label="Client" lucidchartObjectId="f01hlf332VJF" id="Uh_I8GXraJDkrsIi5zB0-51">
          <mxCell style="html=1;overflow=block;blockSpacing=1;whiteSpace=wrap;shape=umlActor;labelPosition=center;verticalLabelPosition=bottom;verticalAlign=top;whiteSpace=nowrap;whiteSpace=wrap;fontSize=13.3;fontColor=#333333;fontStyle=2;spacing=0;strokeColor=#333333;strokeOpacity=100;rounded=1;absoluteArcSize=1;arcSize=7.5;fillColor=#ffffff;strokeWidth=0.8;" vertex="1" parent="1">
            <mxGeometry x="252.5" y="842.5" width="65" height="135" as="geometry" />
          </mxCell>
        </UserObject>
        <UserObject label="MongoDB" lucidchartObjectId="531hfqsSVN4d" id="Uh_I8GXraJDkrsIi5zB0-52">
          <mxCell style="html=1;overflow=block;blockSpacing=1;whiteSpace=wrap;shape=mxgraph.lean_mapping.mrp_erp;whiteSpace=wrap;whiteSpace=wrap;fontSize=13;fontColor=#333333;align=center;spacing=0;strokeColor=#333333;strokeOpacity=100;fillOpacity=100;rounded=1;absoluteArcSize=1;arcSize=12;fillColor=#ffffff;strokeWidth=0.8;" vertex="1" parent="1">
            <mxGeometry x="1450" y="770" width="90" height="90" as="geometry" />
          </mxCell>
        </UserObject>
        <mxCell id="Uh_I8GXraJDkrsIi5zB0-213" style="edgeStyle=orthogonalEdgeStyle;rounded=0;orthogonalLoop=1;jettySize=auto;html=1;exitX=1;exitY=0.5;exitDx=0;exitDy=0;entryX=0.289;entryY=0.017;entryDx=0;entryDy=0;entryPerimeter=0;fontFamily=Helvetica;fontSize=16;" edge="1" parent="1" source="Uh_I8GXraJDkrsIi5zB0-55" target="Uh_I8GXraJDkrsIi5zB0-52">
          <mxGeometry relative="1" as="geometry">
            <Array as="points">
              <mxPoint x="1476" y="400" />
            </Array>
          </mxGeometry>
        </mxCell>
        <UserObject label="Verify Credentials" lucidchartObjectId="v81hkTM86MYg" id="Uh_I8GXraJDkrsIi5zB0-55">
          <mxCell style="html=1;overflow=block;blockSpacing=1;whiteSpace=wrap;ellipse;whiteSpace=wrap;fontSize=13.3;fontColor=#ffffff;fontStyle=2;align=center;spacing=0;verticalAlign=middle;strokeColor=#ffffff;strokeOpacity=100;fillOpacity=100;rounded=1;absoluteArcSize=1;arcSize=7.5;fillColor=#3278cc;strokeWidth=0.8;" vertex="1" parent="1">
            <mxGeometry x="760" y="370" width="90" height="60" as="geometry" />
          </mxCell>
        </UserObject>
        <UserObject label="" lucidchartObjectId="X81hUv0vcpA1" id="Uh_I8GXraJDkrsIi5zB0-56">
          <mxCell style="html=1;jettySize=18;whiteSpace=wrap;fontSize=13;strokeColor=#333333;strokeOpacity=100;dashed=1;fixDash=1;strokeWidth=0.8;rounded=0;startArrow=none;;endArrow=block;endFill=1;;exitX=1.004;exitY=0.5;exitPerimeter=0;entryX=0;entryY=0.5;entryDx=0;entryDy=0;" edge="1" parent="1" source="Uh_I8GXraJDkrsIi5zB0-45" target="Uh_I8GXraJDkrsIi5zB0-55">
            <mxGeometry width="100" height="100" relative="1" as="geometry">
              <Array as="points" />
            </mxGeometry>
          </mxCell>
        </UserObject>
        <mxCell id="Uh_I8GXraJDkrsIi5zB0-57" value="&amp;lt;&amp;lt;includes&amp;gt;&amp;gt;" style="text;html=1;resizable=0;labelBackgroundColor=#ffffff;align=center;verticalAlign=middle;fontColor=#333333;;fontSize=13;" vertex="1" parent="Uh_I8GXraJDkrsIi5zB0-56">
          <mxGeometry x="-0.15941021415569656" relative="1" as="geometry" />
        </mxCell>
        <mxCell id="Uh_I8GXraJDkrsIi5zB0-264" style="edgeStyle=orthogonalEdgeStyle;rounded=0;orthogonalLoop=1;jettySize=auto;html=1;exitX=0.5;exitY=1;exitDx=0;exitDy=0;entryX=0.5;entryY=0;entryDx=0;entryDy=0;entryPerimeter=0;fontFamily=Helvetica;fontSize=16;" edge="1" parent="1" source="Uh_I8GXraJDkrsIi5zB0-59" target="Uh_I8GXraJDkrsIi5zB0-52">
          <mxGeometry relative="1" as="geometry">
            <Array as="points">
              <mxPoint x="935" y="310" />
              <mxPoint x="1495" y="310" />
            </Array>
          </mxGeometry>
        </mxCell>
        <UserObject label="Add Trainer" lucidchartObjectId="aa2h9q.G_xxa" id="Uh_I8GXraJDkrsIi5zB0-59">
          <mxCell style="html=1;overflow=block;blockSpacing=1;whiteSpace=wrap;ellipse;whiteSpace=wrap;fontSize=13.3;fontColor=#ffffff;fontStyle=2;align=center;spacing=0;verticalAlign=middle;strokeColor=#ffffff;strokeOpacity=100;fillOpacity=100;rounded=1;absoluteArcSize=1;arcSize=7.5;fillColor=#3278cc;strokeWidth=0.8;" vertex="1" parent="1">
            <mxGeometry x="890" y="230" width="90" height="60" as="geometry" />
          </mxCell>
        </UserObject>
        <mxCell id="Uh_I8GXraJDkrsIi5zB0-266" style="edgeStyle=orthogonalEdgeStyle;rounded=0;orthogonalLoop=1;jettySize=auto;html=1;exitX=0.5;exitY=1;exitDx=0;exitDy=0;entryX=0.5;entryY=0;entryDx=0;entryDy=0;entryPerimeter=0;fontFamily=Helvetica;fontSize=16;" edge="1" parent="1" source="Uh_I8GXraJDkrsIi5zB0-60" target="Uh_I8GXraJDkrsIi5zB0-52">
          <mxGeometry relative="1" as="geometry">
            <Array as="points">
              <mxPoint x="1115" y="310" />
              <mxPoint x="1495" y="310" />
            </Array>
          </mxGeometry>
        </mxCell>
        <UserObject label="Search Trainer" lucidchartObjectId="pa2h4F8L8b-n" id="Uh_I8GXraJDkrsIi5zB0-60">
          <mxCell style="html=1;overflow=block;blockSpacing=1;whiteSpace=wrap;ellipse;whiteSpace=wrap;fontSize=13.3;fontColor=#ffffff;fontStyle=2;align=center;spacing=0;verticalAlign=middle;strokeColor=#ffffff;strokeOpacity=100;fillOpacity=100;rounded=1;absoluteArcSize=1;arcSize=7.5;fillColor=#3278cc;strokeWidth=0.8;" vertex="1" parent="1">
            <mxGeometry x="1070" y="230" width="90" height="60" as="geometry" />
          </mxCell>
        </UserObject>
        <mxCell id="Uh_I8GXraJDkrsIi5zB0-265" style="edgeStyle=orthogonalEdgeStyle;rounded=0;orthogonalLoop=1;jettySize=auto;html=1;exitX=0.5;exitY=1;exitDx=0;exitDy=0;entryX=0.5;entryY=0;entryDx=0;entryDy=0;entryPerimeter=0;fontFamily=Helvetica;fontSize=16;" edge="1" parent="1" source="Uh_I8GXraJDkrsIi5zB0-61" target="Uh_I8GXraJDkrsIi5zB0-52">
          <mxGeometry relative="1" as="geometry">
            <Array as="points">
              <mxPoint x="1025" y="310" />
              <mxPoint x="1495" y="310" />
            </Array>
          </mxGeometry>
        </mxCell>
        <UserObject label="Delete Trainer" lucidchartObjectId="1a2hv4__Hf33" id="Uh_I8GXraJDkrsIi5zB0-61">
          <mxCell style="html=1;overflow=block;blockSpacing=1;whiteSpace=wrap;ellipse;whiteSpace=wrap;fontSize=13.3;fontColor=#ffffff;fontStyle=2;align=center;spacing=0;verticalAlign=middle;strokeColor=#ffffff;strokeOpacity=100;fillOpacity=100;rounded=1;absoluteArcSize=1;arcSize=7.5;fillColor=#3278cc;strokeWidth=0.8;" vertex="1" parent="1">
            <mxGeometry x="980" y="230" width="90" height="60" as="geometry" />
          </mxCell>
        </UserObject>
        <mxCell id="Uh_I8GXraJDkrsIi5zB0-263" style="edgeStyle=orthogonalEdgeStyle;rounded=0;orthogonalLoop=1;jettySize=auto;html=1;exitX=0.5;exitY=1;exitDx=0;exitDy=0;entryX=0.5;entryY=0;entryDx=0;entryDy=0;entryPerimeter=0;fontFamily=Helvetica;fontSize=16;" edge="1" parent="1" source="Uh_I8GXraJDkrsIi5zB0-62" target="Uh_I8GXraJDkrsIi5zB0-52">
          <mxGeometry relative="1" as="geometry">
            <Array as="points">
              <mxPoint x="845" y="310" />
              <mxPoint x="1495" y="310" />
            </Array>
          </mxGeometry>
        </mxCell>
        <UserObject label="View All Trainers" lucidchartObjectId="xb2h8yqTNbTC" id="Uh_I8GXraJDkrsIi5zB0-62">
          <mxCell style="html=1;overflow=block;blockSpacing=1;whiteSpace=wrap;ellipse;whiteSpace=wrap;fontSize=13.3;fontColor=#ffffff;fontStyle=2;align=center;spacing=0;verticalAlign=middle;strokeColor=#ffffff;strokeOpacity=100;fillOpacity=100;rounded=1;absoluteArcSize=1;arcSize=7.5;fillColor=#3278cc;strokeWidth=0.8;" vertex="1" parent="1">
            <mxGeometry x="800" y="230" width="90" height="60" as="geometry" />
          </mxCell>
        </UserObject>
        <mxCell id="Uh_I8GXraJDkrsIi5zB0-269" style="edgeStyle=orthogonalEdgeStyle;rounded=0;orthogonalLoop=1;jettySize=auto;html=1;exitX=0.5;exitY=1;exitDx=0;exitDy=0;entryX=0;entryY=0.1;entryDx=0;entryDy=0;entryPerimeter=0;fontFamily=Helvetica;fontSize=16;" edge="1" parent="1" source="Uh_I8GXraJDkrsIi5zB0-71" target="Uh_I8GXraJDkrsIi5zB0-52">
          <mxGeometry relative="1" as="geometry">
            <Array as="points">
              <mxPoint x="935" y="570" />
              <mxPoint x="1420" y="570" />
            </Array>
          </mxGeometry>
        </mxCell>
        <UserObject label="Add Client" lucidchartObjectId="9h2h2Q9VIjVG" id="Uh_I8GXraJDkrsIi5zB0-71">
          <mxCell style="html=1;overflow=block;blockSpacing=1;whiteSpace=wrap;ellipse;whiteSpace=wrap;fontSize=13.3;fontColor=#ffffff;fontStyle=2;align=center;spacing=0;verticalAlign=middle;strokeColor=#ffffff;strokeOpacity=100;fillOpacity=100;rounded=1;absoluteArcSize=1;arcSize=7.5;fillColor=#3278cc;strokeWidth=0.8;" vertex="1" parent="1">
            <mxGeometry x="890" y="500" width="90" height="60" as="geometry" />
          </mxCell>
        </UserObject>
        <mxCell id="Uh_I8GXraJDkrsIi5zB0-279" style="edgeStyle=orthogonalEdgeStyle;rounded=0;orthogonalLoop=1;jettySize=auto;html=1;exitX=0.5;exitY=1;exitDx=0;exitDy=0;entryX=0;entryY=0.9;entryDx=0;entryDy=0;entryPerimeter=0;fontFamily=Helvetica;fontSize=16;" edge="1" parent="1" source="Uh_I8GXraJDkrsIi5zB0-72" target="Uh_I8GXraJDkrsIi5zB0-52">
          <mxGeometry relative="1" as="geometry">
            <Array as="points">
              <mxPoint x="935" y="830" />
              <mxPoint x="1400" y="830" />
              <mxPoint x="1400" y="851" />
            </Array>
          </mxGeometry>
        </mxCell>
        <UserObject label="Add &lt;br&gt;Workout" lucidchartObjectId="3k2hUCrNTwlt" id="Uh_I8GXraJDkrsIi5zB0-72">
          <mxCell style="html=1;overflow=block;blockSpacing=1;whiteSpace=wrap;ellipse;whiteSpace=wrap;fontSize=13.3;fontColor=#ffffff;fontStyle=2;align=center;spacing=0;verticalAlign=middle;strokeColor=#ffffff;strokeOpacity=100;fillOpacity=100;rounded=1;absoluteArcSize=1;arcSize=7.5;fillColor=#3278cc;strokeWidth=0.8;" vertex="1" parent="1">
            <mxGeometry x="890" y="750" width="90" height="60" as="geometry" />
          </mxCell>
        </UserObject>
        <mxCell id="Uh_I8GXraJDkrsIi5zB0-280" style="edgeStyle=orthogonalEdgeStyle;rounded=0;orthogonalLoop=1;jettySize=auto;html=1;exitX=0.5;exitY=1;exitDx=0;exitDy=0;entryX=0;entryY=0.9;entryDx=0;entryDy=0;entryPerimeter=0;fontFamily=Helvetica;fontSize=16;" edge="1" parent="1" source="Uh_I8GXraJDkrsIi5zB0-73" target="Uh_I8GXraJDkrsIi5zB0-52">
          <mxGeometry relative="1" as="geometry">
            <Array as="points">
              <mxPoint x="1025" y="830" />
              <mxPoint x="1400" y="830" />
              <mxPoint x="1400" y="851" />
            </Array>
          </mxGeometry>
        </mxCell>
        <UserObject label="Edit &lt;br&gt;Workout" lucidchartObjectId="Cl2hq626zoKd" id="Uh_I8GXraJDkrsIi5zB0-73">
          <mxCell style="html=1;overflow=block;blockSpacing=1;whiteSpace=wrap;ellipse;whiteSpace=wrap;fontSize=13.3;fontColor=#ffffff;fontStyle=2;align=center;spacing=0;verticalAlign=middle;strokeColor=#ffffff;strokeOpacity=100;fillOpacity=100;rounded=1;absoluteArcSize=1;arcSize=7.5;fillColor=#3278cc;strokeWidth=0.8;" vertex="1" parent="1">
            <mxGeometry x="980" y="750" width="90" height="60" as="geometry" />
          </mxCell>
        </UserObject>
        <mxCell id="Uh_I8GXraJDkrsIi5zB0-305" style="edgeStyle=orthogonalEdgeStyle;rounded=0;orthogonalLoop=1;jettySize=auto;html=1;exitX=0.5;exitY=1;exitDx=0;exitDy=0;entryX=0;entryY=0.9;entryDx=0;entryDy=0;entryPerimeter=0;fontFamily=Helvetica;fontSize=16;" edge="1" parent="1" source="Uh_I8GXraJDkrsIi5zB0-74" target="Uh_I8GXraJDkrsIi5zB0-52">
          <mxGeometry relative="1" as="geometry">
            <Array as="points">
              <mxPoint x="1115" y="830" />
              <mxPoint x="1400" y="830" />
              <mxPoint x="1400" y="851" />
            </Array>
          </mxGeometry>
        </mxCell>
        <UserObject label="Delete Workout" lucidchartObjectId="Km2h1NmmLpsI" id="Uh_I8GXraJDkrsIi5zB0-74">
          <mxCell style="html=1;overflow=block;blockSpacing=1;whiteSpace=wrap;ellipse;whiteSpace=wrap;fontSize=13.3;fontColor=#ffffff;fontStyle=2;align=center;spacing=0;verticalAlign=middle;strokeColor=#ffffff;strokeOpacity=100;fillOpacity=100;rounded=1;absoluteArcSize=1;arcSize=7.5;fillColor=#3278cc;strokeWidth=0.8;" vertex="1" parent="1">
            <mxGeometry x="1070" y="750" width="90" height="60" as="geometry" />
          </mxCell>
        </UserObject>
        <mxCell id="Uh_I8GXraJDkrsIi5zB0-283" style="edgeStyle=orthogonalEdgeStyle;rounded=0;orthogonalLoop=1;jettySize=auto;html=1;exitX=0.5;exitY=1;exitDx=0;exitDy=0;entryX=0;entryY=0.9;entryDx=0;entryDy=0;entryPerimeter=0;fontFamily=Helvetica;fontSize=16;" edge="1" parent="1" source="Uh_I8GXraJDkrsIi5zB0-75" target="Uh_I8GXraJDkrsIi5zB0-52">
          <mxGeometry relative="1" as="geometry">
            <Array as="points">
              <mxPoint x="845" y="970" />
              <mxPoint x="1450" y="970" />
            </Array>
          </mxGeometry>
        </mxCell>
        <UserObject label="View &lt;br&gt;Workouts" lucidchartObjectId="3m2hX9y86cIg" id="Uh_I8GXraJDkrsIi5zB0-75">
          <mxCell style="html=1;overflow=block;blockSpacing=1;whiteSpace=wrap;ellipse;whiteSpace=wrap;fontSize=13.3;fontColor=#ffffff;fontStyle=2;align=center;spacing=0;verticalAlign=middle;strokeColor=#ffffff;strokeOpacity=100;fillOpacity=100;rounded=1;absoluteArcSize=1;arcSize=7.5;fillColor=#3278cc;strokeWidth=0.8;" vertex="1" parent="1">
            <mxGeometry x="800" y="880" width="90" height="60" as="geometry" />
          </mxCell>
        </UserObject>
        <mxCell id="Uh_I8GXraJDkrsIi5zB0-285" style="edgeStyle=orthogonalEdgeStyle;rounded=0;orthogonalLoop=1;jettySize=auto;html=1;exitX=0.5;exitY=1;exitDx=0;exitDy=0;entryX=0;entryY=0.9;entryDx=0;entryDy=0;entryPerimeter=0;fontFamily=Helvetica;fontSize=16;" edge="1" parent="1" source="Uh_I8GXraJDkrsIi5zB0-77" target="Uh_I8GXraJDkrsIi5zB0-52">
          <mxGeometry relative="1" as="geometry">
            <Array as="points">
              <mxPoint x="1124" y="970" />
              <mxPoint x="1450" y="970" />
            </Array>
          </mxGeometry>
        </mxCell>
        <UserObject label="View &#xa;Meal Plans" lucidchartObjectId="So2h9EjyB2.1" id="Uh_I8GXraJDkrsIi5zB0-77">
          <mxCell style="html=1;overflow=block;blockSpacing=1;whiteSpace=wrap;ellipse;whiteSpace=wrap;fontSize=11.7;fontColor=#ffffff;fontStyle=2;align=center;spacing=0;verticalAlign=middle;strokeColor=#ffffff;strokeOpacity=100;fillOpacity=100;rounded=1;absoluteArcSize=1;arcSize=7.5;fillColor=#3278cc;strokeWidth=0.8;" vertex="1" parent="1">
            <mxGeometry x="1078.75" y="880" width="90" height="60" as="geometry" />
          </mxCell>
        </UserObject>
        <mxCell id="Uh_I8GXraJDkrsIi5zB0-276" style="edgeStyle=orthogonalEdgeStyle;rounded=0;orthogonalLoop=1;jettySize=auto;html=1;exitX=0.5;exitY=1;exitDx=0;exitDy=0;entryX=0;entryY=0.5;entryDx=0;entryDy=0;entryPerimeter=0;fontFamily=Helvetica;fontSize=16;" edge="1" parent="1" source="Uh_I8GXraJDkrsIi5zB0-79" target="Uh_I8GXraJDkrsIi5zB0-52">
          <mxGeometry relative="1" as="geometry">
            <Array as="points">
              <mxPoint x="1115" y="700" />
              <mxPoint x="1420" y="700" />
            </Array>
          </mxGeometry>
        </mxCell>
        <UserObject label="Delete &#xa;Meal Plan" lucidchartObjectId="Cp2hc6HUdKCV" id="Uh_I8GXraJDkrsIi5zB0-79">
          <mxCell style="html=1;overflow=block;blockSpacing=1;whiteSpace=wrap;ellipse;whiteSpace=wrap;fontSize=13.3;fontColor=#ffffff;fontStyle=2;align=center;spacing=0;verticalAlign=middle;strokeColor=#ffffff;strokeOpacity=100;fillOpacity=100;rounded=1;absoluteArcSize=1;arcSize=7.5;fillColor=#3278cc;strokeWidth=0.8;" vertex="1" parent="1">
            <mxGeometry x="1070" y="630" width="90" height="60" as="geometry" />
          </mxCell>
        </UserObject>
        <mxCell id="Uh_I8GXraJDkrsIi5zB0-284" style="edgeStyle=orthogonalEdgeStyle;rounded=0;orthogonalLoop=1;jettySize=auto;html=1;exitX=0.5;exitY=1;exitDx=0;exitDy=0;entryX=0;entryY=0.9;entryDx=0;entryDy=0;entryPerimeter=0;fontFamily=Helvetica;fontSize=16;" edge="1" parent="1" source="Uh_I8GXraJDkrsIi5zB0-80" target="Uh_I8GXraJDkrsIi5zB0-52">
          <mxGeometry relative="1" as="geometry">
            <Array as="points">
              <mxPoint x="935" y="970" />
              <mxPoint x="1450" y="970" />
            </Array>
          </mxGeometry>
        </mxCell>
        <UserObject label="Log &lt;br&gt;Workout" lucidchartObjectId="bu2hOTVonoCm" id="Uh_I8GXraJDkrsIi5zB0-80">
          <mxCell style="html=1;overflow=block;blockSpacing=1;whiteSpace=wrap;ellipse;whiteSpace=wrap;fontSize=13.3;fontColor=#ffffff;fontStyle=2;align=center;spacing=0;verticalAlign=middle;strokeColor=#ffffff;strokeOpacity=100;fillOpacity=100;rounded=1;absoluteArcSize=1;arcSize=7.5;fillColor=#3278cc;strokeWidth=0.8;" vertex="1" parent="1">
            <mxGeometry x="890" y="880" width="90" height="60" as="geometry" />
          </mxCell>
        </UserObject>
        <mxCell id="Uh_I8GXraJDkrsIi5zB0-82" value="CourtneyGenix Exercise and Nutrition App" style="text;html=1;strokeColor=none;fillColor=none;align=center;verticalAlign=middle;whiteSpace=wrap;rounded=0;fontStyle=1;fontFamily=Helvetica;fontSize=16;" vertex="1" parent="1">
          <mxGeometry x="686.25" y="154" width="350" height="30" as="geometry" />
        </mxCell>
        <mxCell id="Uh_I8GXraJDkrsIi5zB0-286" style="edgeStyle=orthogonalEdgeStyle;rounded=0;orthogonalLoop=1;jettySize=auto;html=1;exitX=0.5;exitY=1;exitDx=0;exitDy=0;entryX=0;entryY=0.9;entryDx=0;entryDy=0;entryPerimeter=0;fontFamily=Helvetica;fontSize=16;" edge="1" parent="1" source="Uh_I8GXraJDkrsIi5zB0-83" target="Uh_I8GXraJDkrsIi5zB0-52">
          <mxGeometry relative="1" as="geometry">
            <Array as="points">
              <mxPoint x="1214" y="970" />
              <mxPoint x="1450" y="970" />
            </Array>
          </mxGeometry>
        </mxCell>
        <UserObject label="Log Meal" lucidchartObjectId="bu2hOTVonoCm" id="Uh_I8GXraJDkrsIi5zB0-83">
          <mxCell style="html=1;overflow=block;blockSpacing=1;whiteSpace=wrap;ellipse;whiteSpace=wrap;fontSize=13.3;fontColor=#ffffff;fontStyle=2;align=center;spacing=0;verticalAlign=middle;strokeColor=#ffffff;strokeOpacity=100;fillOpacity=100;rounded=1;absoluteArcSize=1;arcSize=7.5;fillColor=#3278cc;strokeWidth=0.8;" vertex="1" parent="1">
            <mxGeometry x="1168.75" y="880" width="90" height="60" as="geometry" />
          </mxCell>
        </UserObject>
        <mxCell id="Uh_I8GXraJDkrsIi5zB0-243" style="edgeStyle=orthogonalEdgeStyle;rounded=0;orthogonalLoop=1;jettySize=auto;html=1;exitX=0.5;exitY=1;exitDx=0;exitDy=0;entryX=0.5;entryY=1;entryDx=0;entryDy=0;entryPerimeter=0;fontFamily=Helvetica;fontSize=16;" edge="1" parent="1" source="Uh_I8GXraJDkrsIi5zB0-84" target="Uh_I8GXraJDkrsIi5zB0-52">
          <mxGeometry relative="1" as="geometry" />
        </mxCell>
        <UserObject label="View Sleep&lt;span style=&quot;color: rgba(0 , 0 , 0 , 0) ; font-family: monospace ; font-size: 0px ; font-style: normal&quot;&gt;%3CmxGraphModel%3E%3Croot%3E%3CmxCell%20id%3D%220%22%2F%3E%3CmxCell%20id%3D%221%22%20parent%3D%220%22%2F%3E%3CUserObject%20label%3D%22View%20Workouts%22%20lucidchartObjectId%3D%223m2hX9y86cIg%22%20id%3D%222%22%3E%3CmxCell%20style%3D%22html%3D1%3Boverflow%3Dblock%3BblockSpacing%3D1%3BwhiteSpace%3Dwrap%3Bellipse%3BwhiteSpace%3Dwrap%3BfontSize%3D13.3%3BfontColor%3D%23ffffff%3BfontStyle%3D2%3Balign%3Dcenter%3Bspacing%3D0%3BverticalAlign%3Dmiddle%3BstrokeColor%3D%23ffffff%3BstrokeOpacity%3D100%3BfillOpacity%3D100%3Brounded%3D1%3BabsoluteArcSize%3D1%3BarcSize%3D7.5%3BfillColor%3D%233278cc%3BstrokeWidth%3D0.8%3B%22%20vertex%3D%221%22%20parent%3D%221%22%3E%3CmxGeometry%20x%3D%22710%22%20y%3D%22804%22%20width%3D%2290%22%20height%3D%2260%22%20as%3D%22geometry%22%2F%3E%3C%2FmxCell%3E%3C%2FUserObject%3E%3C%2Froot%3E%3C%2FmxGraphModel%3E&lt;/span&gt;" lucidchartObjectId="3m2hX9y86cIg" id="Uh_I8GXraJDkrsIi5zB0-84">
          <mxCell style="html=1;overflow=block;blockSpacing=1;whiteSpace=wrap;ellipse;whiteSpace=wrap;fontSize=13.3;fontColor=#ffffff;fontStyle=2;align=center;spacing=0;verticalAlign=middle;strokeColor=#ffffff;strokeOpacity=100;fillOpacity=100;rounded=1;absoluteArcSize=1;arcSize=7.5;fillColor=#7F00FF;strokeWidth=0.8;" vertex="1" parent="1">
            <mxGeometry x="800" y="1050" width="90" height="60" as="geometry" />
          </mxCell>
        </UserObject>
        <mxCell id="Uh_I8GXraJDkrsIi5zB0-244" style="edgeStyle=orthogonalEdgeStyle;rounded=0;orthogonalLoop=1;jettySize=auto;html=1;exitX=0.5;exitY=1;exitDx=0;exitDy=0;fontFamily=Helvetica;fontSize=16;entryX=0.5;entryY=1;entryDx=0;entryDy=0;entryPerimeter=0;" edge="1" parent="1" source="Uh_I8GXraJDkrsIi5zB0-85" target="Uh_I8GXraJDkrsIi5zB0-52">
          <mxGeometry relative="1" as="geometry">
            <mxPoint x="1340" y="730" as="targetPoint" />
          </mxGeometry>
        </mxCell>
        <UserObject label="Add Sleep&lt;span style=&quot;color: rgba(0 , 0 , 0 , 0) ; font-family: monospace ; font-size: 0px ; font-style: normal&quot;&gt;%3CmxGraphModel%3E%3Croot%3E%3CmxCell%20id%3D%220%22%2F%3E%3CmxCell%20id%3D%221%22%20parent%3D%220%22%2F%3E%3CUserObject%20label%3D%22View%20Workouts%22%20lucidchartObjectId%3D%223m2hX9y86cIg%22%20id%3D%222%22%3E%3CmxCell%20style%3D%22html%3D1%3Boverflow%3Dblock%3BblockSpacing%3D1%3BwhiteSpace%3Dwrap%3Bellipse%3BwhiteSpace%3Dwrap%3BfontSize%3D13.3%3BfontColor%3D%23ffffff%3BfontStyle%3D2%3Balign%3Dcenter%3Bspacing%3D0%3BverticalAlign%3Dmiddle%3BstrokeColor%3D%23ffffff%3BstrokeOpacity%3D100%3BfillOpacity%3D100%3Brounded%3D1%3BabsoluteArcSize%3D1%3BarcSize%3D7.5%3BfillColor%3D%233278cc%3BstrokeWidth%3D0.8%3B%22%20vertex%3D%221%22%20parent%3D%221%22%3E%3CmxGeometry%20x%3D%22710%22%20y%3D%22804%22%20width%3D%2290%22%20height%3D%2260%22%20as%3D%22geometry%22%2F%3E%3C%2FmxCell%3E%3C%2FUserObject%3E%3C%2Froot%3E%3C%2FmxGraphModel%3E&lt;/span&gt;" lucidchartObjectId="3m2hX9y86cIg" id="Uh_I8GXraJDkrsIi5zB0-85">
          <mxCell style="html=1;overflow=block;blockSpacing=1;whiteSpace=wrap;ellipse;whiteSpace=wrap;fontSize=13.3;fontColor=#ffffff;fontStyle=2;align=center;spacing=0;verticalAlign=middle;strokeColor=#ffffff;strokeOpacity=100;fillOpacity=100;rounded=1;absoluteArcSize=1;arcSize=7.5;fillColor=#7F00FF;strokeWidth=0.8;" vertex="1" parent="1">
            <mxGeometry x="890" y="1050" width="90" height="60" as="geometry" />
          </mxCell>
        </UserObject>
        <mxCell id="Uh_I8GXraJDkrsIi5zB0-289" style="edgeStyle=orthogonalEdgeStyle;rounded=0;orthogonalLoop=1;jettySize=auto;html=1;exitX=0.5;exitY=1;exitDx=0;exitDy=0;entryX=0.5;entryY=1;entryDx=0;entryDy=0;entryPerimeter=0;fontFamily=Helvetica;fontSize=16;" edge="1" parent="1" source="Uh_I8GXraJDkrsIi5zB0-86" target="Uh_I8GXraJDkrsIi5zB0-52">
          <mxGeometry relative="1" as="geometry" />
        </mxCell>
        <UserObject label="View &lt;br&gt;Tracker Info" lucidchartObjectId="3m2hX9y86cIg" id="Uh_I8GXraJDkrsIi5zB0-86">
          <mxCell style="html=1;overflow=block;blockSpacing=1;whiteSpace=wrap;ellipse;whiteSpace=wrap;fontSize=13.3;fontColor=#ffffff;fontStyle=2;align=center;spacing=0;verticalAlign=middle;strokeColor=#ffffff;strokeOpacity=100;fillOpacity=100;rounded=1;absoluteArcSize=1;arcSize=7.5;fillColor=#3278cc;strokeWidth=0.8;" vertex="1" parent="1">
            <mxGeometry x="1070" y="1180" width="90" height="60" as="geometry" />
          </mxCell>
        </UserObject>
        <mxCell id="Uh_I8GXraJDkrsIi5zB0-287" style="edgeStyle=orthogonalEdgeStyle;rounded=0;orthogonalLoop=1;jettySize=auto;html=1;exitX=0.5;exitY=1;exitDx=0;exitDy=0;entryX=0.5;entryY=1;entryDx=0;entryDy=0;entryPerimeter=0;fontFamily=Helvetica;fontSize=16;" edge="1" parent="1" source="Uh_I8GXraJDkrsIi5zB0-87" target="Uh_I8GXraJDkrsIi5zB0-52">
          <mxGeometry relative="1" as="geometry" />
        </mxCell>
        <UserObject label="View Moods&lt;span style=&quot;color: rgba(0 , 0 , 0 , 0) ; font-family: monospace ; font-size: 0px ; font-style: normal&quot;&gt;%3CmxGraphModel%3E%3Croot%3E%3CmxCell%20id%3D%220%22%2F%3E%3CmxCell%20id%3D%221%22%20parent%3D%220%22%2F%3E%3CUserObject%20label%3D%22View%20Workouts%22%20lucidchartObjectId%3D%223m2hX9y86cIg%22%20id%3D%222%22%3E%3CmxCell%20style%3D%22html%3D1%3Boverflow%3Dblock%3BblockSpacing%3D1%3BwhiteSpace%3Dwrap%3Bellipse%3BwhiteSpace%3Dwrap%3BfontSize%3D13.3%3BfontColor%3D%23ffffff%3BfontStyle%3D2%3Balign%3Dcenter%3Bspacing%3D0%3BverticalAlign%3Dmiddle%3BstrokeColor%3D%23ffffff%3BstrokeOpacity%3D100%3BfillOpacity%3D100%3Brounded%3D1%3BabsoluteArcSize%3D1%3BarcSize%3D7.5%3BfillColor%3D%233278cc%3BstrokeWidth%3D0.8%3B%22%20vertex%3D%221%22%20parent%3D%221%22%3E%3CmxGeometry%20x%3D%22710%22%20y%3D%22804%22%20width%3D%2290%22%20height%3D%2260%22%20as%3D%22geometry%22%2F%3E%3C%2FmxCell%3E%3C%2FUserObject%3E%3C%2Froot%3E%3C%2FmxGraphModels&lt;/span&gt;" lucidchartObjectId="3m2hX9y86cIg" id="Uh_I8GXraJDkrsIi5zB0-87">
          <mxCell style="html=1;overflow=block;blockSpacing=1;whiteSpace=wrap;ellipse;whiteSpace=wrap;fontSize=13.3;fontColor=#ffffff;fontStyle=2;align=center;spacing=0;verticalAlign=middle;strokeColor=#ffffff;strokeOpacity=100;fillOpacity=100;rounded=1;absoluteArcSize=1;arcSize=7.5;fillColor=#3278cc;strokeWidth=0.8;" vertex="1" parent="1">
            <mxGeometry x="800" y="1180" width="90" height="60" as="geometry" />
          </mxCell>
        </UserObject>
        <mxCell id="Uh_I8GXraJDkrsIi5zB0-288" style="edgeStyle=orthogonalEdgeStyle;rounded=0;orthogonalLoop=1;jettySize=auto;html=1;exitX=0.5;exitY=1;exitDx=0;exitDy=0;entryX=0.5;entryY=1;entryDx=0;entryDy=0;entryPerimeter=0;fontFamily=Helvetica;fontSize=16;" edge="1" parent="1" source="Uh_I8GXraJDkrsIi5zB0-88" target="Uh_I8GXraJDkrsIi5zB0-52">
          <mxGeometry relative="1" as="geometry" />
        </mxCell>
        <UserObject label="Log Mood&lt;span style=&quot;color: rgba(0 , 0 , 0 , 0) ; font-family: monospace ; font-size: 0px ; font-style: normal&quot;&gt;%3CmxGraphModel%3E%3Croot%3E%3CmxCell%20id%3D%220%22%2F%3E%3CmxCell%20id%3D%221%22%20parent%3D%220%22%2F%3E%3CUserObject%20label%3D%22View%20Workouts%22%20lucidchartObjectId%3D%223m2hX9y86cIg%22%20id%3D%222%22%3E%3CmxCell%20style%3D%22html%3D1%3Boverflow%3Dblock%3BblockSpacing%3D1%3BwhiteSpace%3Dwrap%3Bellipse%3BwhiteSpace%3Dwrap%3BfontSize%3D13.3%3BfontColor%3D%23ffffff%3BfontStyle%3D2%3Balign%3Dcenter%3Bspacing%3D0%3BverticalAlign%3Dmiddle%3BstrokeColor%3D%23ffffff%3BstrokeOpacity%3D100%3BfillOpacity%3D100%3Brounded%3D1%3BabsoluteArcSize%3D1%3BarcSize%3D7.5%3BfillColor%3D%233278cc%3BstrokeWidth%3D0.8%3B%22%20vertex%3D%221%22%20parent%3D%221%22%3E%3CmxGeometry%20x%3D%22710%22%20y%3D%22804%22%20width%3D%2290%22%20height%3D%2260%22%20as%3D%22geometry%22%2F%3E%3C%2FmxCell%3E%3C%2FUserObject%3E%3C%2Froot%3E%3C%2FmxGraphModel&lt;/span&gt;" lucidchartObjectId="3m2hX9y86cIg" id="Uh_I8GXraJDkrsIi5zB0-88">
          <mxCell style="html=1;overflow=block;blockSpacing=1;whiteSpace=wrap;ellipse;whiteSpace=wrap;fontSize=13.3;fontColor=#ffffff;fontStyle=2;align=center;spacing=0;verticalAlign=middle;strokeColor=#ffffff;strokeOpacity=100;fillOpacity=100;rounded=1;absoluteArcSize=1;arcSize=7.5;fillColor=#3278cc;strokeWidth=0.8;" vertex="1" parent="1">
            <mxGeometry x="890" y="1180" width="90" height="60" as="geometry" />
          </mxCell>
        </UserObject>
        <mxCell id="Uh_I8GXraJDkrsIi5zB0-294" style="edgeStyle=orthogonalEdgeStyle;rounded=0;orthogonalLoop=1;jettySize=auto;html=1;exitX=0.5;exitY=1;exitDx=0;exitDy=0;entryX=1;entryY=0.9;entryDx=0;entryDy=0;entryPerimeter=0;fontFamily=Helvetica;fontSize=16;" edge="1" parent="1" source="Uh_I8GXraJDkrsIi5zB0-89" target="Uh_I8GXraJDkrsIi5zB0-52">
          <mxGeometry relative="1" as="geometry">
            <Array as="points">
              <mxPoint x="845" y="1530" />
              <mxPoint x="1540" y="1530" />
            </Array>
          </mxGeometry>
        </mxCell>
        <UserObject label="View &lt;br&gt;Menstrual Cycle&lt;span style=&quot;color: rgba(0 , 0 , 0 , 0) ; font-family: monospace ; font-size: 0px ; font-style: normal&quot;&gt;%3CmxGraphModel%3E%3Croot%3E%3CmxCell%20id%3D%220%22%2F%3E%3CmxCell%20id%3D%221%22%20parent%3D%220%22%2F%3E%3CUserObject%20label%3D%22View%20Workouts%22%20lucidchartObjectId%3D%223m2hX9y86cIg%22%20id%3D%222%22%3E%3CmxCell%20style%3D%22html%3D1%3Boverflow%3Dblock%3BblockSpacing%3D1%3BwhiteSpace%3Dwrap%3Bellipse%3BwhiteSpace%3Dwrap%3BfontSize%3D13.3%3BfontColor%3D%23ffffff%3BfontStyle%3D2%3Balign%3Dcenter%3Bspacing%3D0%3BverticalAlign%3Dmiddle%3BstrokeColor%3D%23ffffff%3BstrokeOpacity%3D100%3BfillOpacity%3D100%3Brounded%3D1%3BabsoluteArcSize%3D1%3BarcSize%3D7.5%3BfillColor%3D%233278cc%3BstrokeWidth%3D0.8%3B%22%20vertex%3D%221%22%20parent%3D%221%22%3E%3CmxGeometry%20x%3D%22710%22%20y%3D%22804%22%20width%3D%2290%22%20height%3D%2260%22%20as%3D%22geometry%22%2F%3E%3C%2FmxCell%3E%3C%2FUserObject%3E%3C%2Froot%3E%3C%2FmxGraphModes&lt;/span&gt;" lucidchartObjectId="3m2hX9y86cIg" id="Uh_I8GXraJDkrsIi5zB0-89">
          <mxCell style="html=1;overflow=block;blockSpacing=1;whiteSpace=wrap;ellipse;whiteSpace=wrap;fontSize=13.3;fontColor=#ffffff;fontStyle=2;align=center;spacing=0;verticalAlign=middle;strokeColor=#ffffff;strokeOpacity=100;fillOpacity=100;rounded=1;absoluteArcSize=1;arcSize=7.5;fillColor=#7F00FF;strokeWidth=0.8;" vertex="1" parent="1">
            <mxGeometry x="800" y="1450" width="90" height="60" as="geometry" />
          </mxCell>
        </UserObject>
        <mxCell id="Uh_I8GXraJDkrsIi5zB0-295" style="edgeStyle=orthogonalEdgeStyle;rounded=0;orthogonalLoop=1;jettySize=auto;html=1;exitX=0.5;exitY=1;exitDx=0;exitDy=0;entryX=1;entryY=0.9;entryDx=0;entryDy=0;entryPerimeter=0;fontFamily=Helvetica;fontSize=16;" edge="1" parent="1" source="Uh_I8GXraJDkrsIi5zB0-90" target="Uh_I8GXraJDkrsIi5zB0-52">
          <mxGeometry relative="1" as="geometry">
            <Array as="points">
              <mxPoint x="935" y="1530" />
              <mxPoint x="1540" y="1530" />
            </Array>
          </mxGeometry>
        </mxCell>
        <UserObject label="Add&lt;br&gt;Cycle&lt;span style=&quot;color: rgba(0 , 0 , 0 , 0) ; font-family: monospace ; font-size: 0px ; font-style: normal&quot;&gt;%3CmxGraphModel%3E%3Croot%3E%3CmxCell%20id%3D%220%22%2F%3E%3CmxCell%20id%3D%221%22%20parent%3D%220%22%2F%3E%3CUserObject%20label%3D%22View%20Workouts%22%20lucidchartObjectId%3D%223m2hX9y86cIg%22%20id%3D%222%22%3E%3CmxCell%20style%3D%22html%3D1%3Boverflow%3Dblock%3BblockSpacing%3D1%3BwhiteSpace%3Dwrap%3Bellipse%3BwhiteSpace%3Dwrap%3BfontSize%3D13.3%3BfontColor%3D%23ffffff%3BfontStyle%3D2%3Balign%3Dcenter%3Bspacing%3D0%3BverticalAlign%3Dmiddle%3BstrokeColor%3D%23ffffff%3BstrokeOpacity%3D100%3BfillOpacity%3D100%3Brounded%3D1%3BabsoluteArcSize%3D1%3BarcSize%3D7.5%3BfillColor%3D%233278cc%3BstrokeWidth%3D0.8%3B%22%20vertex%3D%221%22%20parent%3D%221%22%3E%3CmxGeometry%20x%3D%22710%22%20y%3D%22804%22%20width%3D%2290%22%20height%3D%2260%22%20as%3D%22geometry%22%2F%3E%3C%2FmxCell%3E%3C%2FUserObject%3E%3C%2Froot%3E%3C%2FmxGraphModes&lt;/span&gt;" lucidchartObjectId="3m2hX9y86cIg" id="Uh_I8GXraJDkrsIi5zB0-90">
          <mxCell style="html=1;overflow=block;blockSpacing=1;whiteSpace=wrap;ellipse;whiteSpace=wrap;fontSize=13.3;fontColor=#ffffff;fontStyle=2;align=center;spacing=0;verticalAlign=middle;strokeColor=#ffffff;strokeOpacity=100;fillOpacity=100;rounded=1;absoluteArcSize=1;arcSize=7.5;fillColor=#7F00FF;strokeWidth=0.8;" vertex="1" parent="1">
            <mxGeometry x="890" y="1450" width="90" height="60" as="geometry" />
          </mxCell>
        </UserObject>
        <mxCell id="Uh_I8GXraJDkrsIi5zB0-296" style="edgeStyle=orthogonalEdgeStyle;rounded=0;orthogonalLoop=1;jettySize=auto;html=1;exitX=0.5;exitY=1;exitDx=0;exitDy=0;entryX=1;entryY=0.9;entryDx=0;entryDy=0;entryPerimeter=0;fontFamily=Helvetica;fontSize=16;" edge="1" parent="1" source="Uh_I8GXraJDkrsIi5zB0-91" target="Uh_I8GXraJDkrsIi5zB0-52">
          <mxGeometry relative="1" as="geometry">
            <Array as="points">
              <mxPoint x="1025" y="1530" />
              <mxPoint x="1540" y="1530" />
            </Array>
          </mxGeometry>
        </mxCell>
        <UserObject label="Edit&lt;br&gt;Cycle&lt;span style=&quot;color: rgba(0 , 0 , 0 , 0) ; font-family: monospace ; font-size: 0px ; font-style: normal&quot;&gt;%3CmxGraphModel%3E%3Croot%3E%3CmxCell%20id%3D%220%22%2F%3E%3CmxCell%20id%3D%221%22%20parent%3D%220%22%2F%3E%3CUserObject%20label%3D%22View%20Workouts%22%20lucidchartObjectId%3D%223m2hX9y86cIg%22%20id%3D%222%22%3E%3CmxCell%20style%3D%22html%3D1%3Boverflow%3Dblock%3BblockSpacing%3D1%3BwhiteSpace%3Dwrap%3Bellipse%3BwhiteSpace%3Dwrap%3BfontSize%3D13.3%3BfontColor%3D%23ffffff%3BfontStyle%3D2%3Balign%3Dcenter%3Bspacing%3D0%3BverticalAlign%3Dmiddle%3BstrokeColor%3D%23ffffff%3BstrokeOpacity%3D100%3BfillOpacity%3D100%3Brounded%3D1%3BabsoluteArcSize%3D1%3BarcSize%3D7.5%3BfillColor%3D%233278cc%3BstrokeWidth%3D0.8%3B%22%20vertex%3D%221%22%20parent%3D%221%22%3E%3CmxGeometry%20x%3D%22710%22%20y%3D%22804%22%20width%3D%2290%22%20height%3D%2260%22%20as%3D%22geometry%22%2F%3E%3C%2FmxCell%3E%3C%2FUserObject%3E%3C%2Froot%3E%3C%2FmxGraphModes&lt;/span&gt;" lucidchartObjectId="3m2hX9y86cIg" id="Uh_I8GXraJDkrsIi5zB0-91">
          <mxCell style="html=1;overflow=block;blockSpacing=1;whiteSpace=wrap;ellipse;whiteSpace=wrap;fontSize=13.3;fontColor=#ffffff;fontStyle=2;align=center;spacing=0;verticalAlign=middle;strokeColor=#ffffff;strokeOpacity=100;fillOpacity=100;rounded=1;absoluteArcSize=1;arcSize=7.5;fillColor=#7F00FF;strokeWidth=0.8;" vertex="1" parent="1">
            <mxGeometry x="980" y="1450" width="90" height="60" as="geometry" />
          </mxCell>
        </UserObject>
        <mxCell id="Uh_I8GXraJDkrsIi5zB0-297" style="edgeStyle=orthogonalEdgeStyle;rounded=0;orthogonalLoop=1;jettySize=auto;html=1;exitX=0.5;exitY=1;exitDx=0;exitDy=0;entryX=1;entryY=0.9;entryDx=0;entryDy=0;entryPerimeter=0;fontFamily=Helvetica;fontSize=16;" edge="1" parent="1" source="Uh_I8GXraJDkrsIi5zB0-92" target="Uh_I8GXraJDkrsIi5zB0-52">
          <mxGeometry relative="1" as="geometry">
            <Array as="points">
              <mxPoint x="1115" y="1530" />
              <mxPoint x="1540" y="1530" />
            </Array>
          </mxGeometry>
        </mxCell>
        <UserObject label="Delete&lt;br&gt;Cycle&lt;span style=&quot;color: rgba(0 , 0 , 0 , 0) ; font-family: monospace ; font-size: 0px ; font-style: normal&quot;&gt;%3CmxGraphModel%3E%3Croot%3E%3CmxCell%20id%3D%220%22%2F%3E%3CmxCell%20id%3D%221%22%20parent%3D%220%22%2F%3E%3CUserObject%20label%3D%22View%20Workouts%22%20lucidchartObjectId%3D%223m2hX9y86cIg%22%20id%3D%222%22%3E%3CmxCell%20style%3D%22html%3D1%3Boverflow%3Dblock%3BblockSpacing%3D1%3BwhiteSpace%3Dwrap%3Bellipse%3BwhiteSpace%3Dwrap%3BfontSize%3D13.3%3BfontColor%3D%23ffffff%3BfontStyle%3D2%3Balign%3Dcenter%3Bspacing%3D0%3BverticalAlign%3Dmiddle%3BstrokeColor%3D%23ffffff%3BstrokeOpacity%3D100%3BfillOpacity%3D100%3Brounded%3D1%3BabsoluteArcSize%3D1%3BarcSize%3D7.5%3BfillColor%3D%233278cc%3BstrokeWidth%3D0.8%3B%22%20vertex%3D%221%22%20parent%3D%221%22%3E%3CmxGeometry%20x%3D%22710%22%20y%3D%22804%22%20width%3D%2290%22%20height%3D%2260%22%20as%3D%22geometry%22%2F%3E%3C%2FmxCell%3E%3C%2FUserObject%3E%3C%2Froot%3E%3C%2FmxGraphModes&lt;/span&gt;" lucidchartObjectId="3m2hX9y86cIg" id="Uh_I8GXraJDkrsIi5zB0-92">
          <mxCell style="html=1;overflow=block;blockSpacing=1;whiteSpace=wrap;ellipse;whiteSpace=wrap;fontSize=13.3;fontColor=#ffffff;fontStyle=2;align=center;spacing=0;verticalAlign=middle;strokeColor=#ffffff;strokeOpacity=100;fillOpacity=100;rounded=1;absoluteArcSize=1;arcSize=7.5;fillColor=#7F00FF;strokeWidth=0.8;" vertex="1" parent="1">
            <mxGeometry x="1070" y="1450" width="90" height="60" as="geometry" />
          </mxCell>
        </UserObject>
        <mxCell id="Uh_I8GXraJDkrsIi5zB0-245" style="edgeStyle=orthogonalEdgeStyle;rounded=0;orthogonalLoop=1;jettySize=auto;html=1;exitX=0.5;exitY=1;exitDx=0;exitDy=0;entryX=0.5;entryY=1;entryDx=0;entryDy=0;entryPerimeter=0;fontFamily=Helvetica;fontSize=16;" edge="1" parent="1" source="Uh_I8GXraJDkrsIi5zB0-94" target="Uh_I8GXraJDkrsIi5zB0-52">
          <mxGeometry relative="1" as="geometry" />
        </mxCell>
        <UserObject label="Edit Sleep&lt;span style=&quot;color: rgba(0 , 0 , 0 , 0) ; font-family: monospace ; font-size: 0px ; font-style: normal&quot;&gt;%3CmxGraphModel%3E%3Croot%3E%3CmxCell%20id%3D%220%22%2F%3E%3CmxCell%20id%3D%221%22%20parent%3D%220%22%2F%3E%3CUserObject%20label%3D%22View%20Workouts%22%20lucidchartObjectId%3D%223m2hX9y86cIg%22%20id%3D%222%22%3E%3CmxCell%20style%3D%22html%3D1%3Boverflow%3Dblock%3BblockSpacing%3D1%3BwhiteSpace%3Dwrap%3Bellipse%3BwhiteSpace%3Dwrap%3BfontSize%3D13.3%3BfontColor%3D%23ffffff%3BfontStyle%3D2%3Balign%3Dcenter%3Bspacing%3D0%3BverticalAlign%3Dmiddle%3BstrokeColor%3D%23ffffff%3BstrokeOpacity%3D100%3BfillOpacity%3D100%3Brounded%3D1%3BabsoluteArcSize%3D1%3BarcSize%3D7.5%3BfillColor%3D%233278cc%3BstrokeWidth%3D0.8%3B%22%20vertex%3D%221%22%20parent%3D%221%22%3E%3CmxGeometry%20x%3D%22710%22%20y%3D%22804%22%20width%3D%2290%22%20height%3D%2260%22%20as%3D%22geometry%22%2F%3E%3C%2FmxCell%3E%3C%2FUserObject%3E%3C%2Froot%3E%3C%2FmxGraphModel%3E&lt;/span&gt;" lucidchartObjectId="3m2hX9y86cIg" id="Uh_I8GXraJDkrsIi5zB0-94">
          <mxCell style="html=1;overflow=block;blockSpacing=1;whiteSpace=wrap;ellipse;whiteSpace=wrap;fontSize=13.3;fontColor=#ffffff;fontStyle=2;align=center;spacing=0;verticalAlign=middle;strokeColor=#ffffff;strokeOpacity=100;fillOpacity=100;rounded=1;absoluteArcSize=1;arcSize=7.5;fillColor=#7F00FF;strokeWidth=0.8;" vertex="1" parent="1">
            <mxGeometry x="980" y="1050" width="90" height="60" as="geometry" />
          </mxCell>
        </UserObject>
        <mxCell id="Uh_I8GXraJDkrsIi5zB0-246" style="edgeStyle=orthogonalEdgeStyle;rounded=0;orthogonalLoop=1;jettySize=auto;html=1;exitX=0.5;exitY=1;exitDx=0;exitDy=0;entryX=0.5;entryY=1;entryDx=0;entryDy=0;entryPerimeter=0;fontFamily=Helvetica;fontSize=16;" edge="1" parent="1" source="Uh_I8GXraJDkrsIi5zB0-95" target="Uh_I8GXraJDkrsIi5zB0-52">
          <mxGeometry relative="1" as="geometry" />
        </mxCell>
        <UserObject label="Delete Sleep&lt;span style=&quot;color: rgba(0 , 0 , 0 , 0) ; font-family: monospace ; font-size: 0px ; font-style: normal&quot;&gt;%3CmxGraphModel%3E%3Croot%3E%3CmxCell%20id%3D%220%22%2F%3E%3CmxCell%20id%3D%221%22%20parent%3D%220%22%2F%3E%3CUserObject%20label%3D%22View%20Workouts%22%20lucidchartObjectId%3D%223m2hX9y86cIg%22%20id%3D%222%22%3E%3CmxCell%20style%3D%22html%3D1%3Boverflow%3Dblock%3BblockSpacing%3D1%3BwhiteSpace%3Dwrap%3Bellipse%3BwhiteSpace%3Dwrap%3BfontSize%3D13.3%3BfontColor%3D%23ffffff%3BfontStyle%3D2%3Balign%3Dcenter%3Bspacing%3D0%3BverticalAlign%3Dmiddle%3BstrokeColor%3D%23ffffff%3BstrokeOpacity%3D100%3BfillOpacity%3D100%3Brounded%3D1%3BabsoluteArcSize%3D1%3BarcSize%3D7.5%3BfillColor%3D%233278cc%3BstrokeWidth%3D0.8%3B%22%20vertex%3D%221%22%20parent%3D%221%22%3E%3CmxGeometry%20x%3D%22710%22%20y%3D%22804%22%20width%3D%2290%22%20height%3D%2260%22%20as%3D%22geometry%22%2F%3E%3C%2FmxCell%3E%3C%2FUserObject%3E%3C%2Froot%3E%3C%2FmxGraphModel%3E&lt;/span&gt;" lucidchartObjectId="3m2hX9y86cIg" id="Uh_I8GXraJDkrsIi5zB0-95">
          <mxCell style="html=1;overflow=block;blockSpacing=1;whiteSpace=wrap;ellipse;whiteSpace=wrap;fontSize=13.3;fontColor=#ffffff;fontStyle=2;align=center;spacing=0;verticalAlign=middle;strokeColor=#ffffff;strokeOpacity=100;fillOpacity=100;rounded=1;absoluteArcSize=1;arcSize=7.5;fillColor=#7F00FF;strokeWidth=0.8;" vertex="1" parent="1">
            <mxGeometry x="1070" y="1050" width="90" height="60" as="geometry" />
          </mxCell>
        </UserObject>
        <mxCell id="Uh_I8GXraJDkrsIi5zB0-290" style="edgeStyle=orthogonalEdgeStyle;rounded=0;orthogonalLoop=1;jettySize=auto;html=1;exitX=0.5;exitY=1;exitDx=0;exitDy=0;entryX=1;entryY=0.9;entryDx=0;entryDy=0;entryPerimeter=0;fontFamily=Helvetica;fontSize=16;" edge="1" parent="1" source="Uh_I8GXraJDkrsIi5zB0-96" target="Uh_I8GXraJDkrsIi5zB0-52">
          <mxGeometry relative="1" as="geometry">
            <Array as="points">
              <mxPoint x="845" y="1390" />
              <mxPoint x="1540" y="1390" />
            </Array>
          </mxGeometry>
        </mxCell>
        <UserObject label="View Measurements&lt;span style=&quot;color: rgba(0 , 0 , 0 , 0) ; font-family: monospace ; font-size: 0px ; font-style: normal&quot;&gt;%3CmxGraphModel%3E%3Croot%3E%3CmxCell%20id%3D%220%22%2F%3E%3CmxCell%20id%3D%221%22%20parent%3D%220%22%2F%3E%3CUserObject%20label%3D%22View%20Workouts%22%20lucidchartObjectId%3D%223m2hX9y86cIg%22%20id%3D%222%22%3E%3CmxCell%20style%3D%22html%3D1%3Boverflow%3Dblock%3BblockSpacing%3D1%3BwhiteSpace%3Dwrap%3Bellipse%3BwhiteSpace%3Dwrap%3BfontSize%3D13.3%3BfontColor%3D%23ffffff%3BfontStyle%3D2%3Balign%3Dcenter%3Bspacing%3D0%3BverticalAlign%3Dmiddle%3BstrokeColor%3D%23ffffff%3BstrokeOpacity%3D100%3BfillOpacity%3D100%3Brounded%3D1%3BabsoluteArcSize%3D1%3BarcSize%3D7.5%3BfillColor%3D%233278cc%3BstrokeWidth%3D0.8%3B%22%20vertex%3D%221%22%20parent%3D%221%22%3E%3CmxGeometry%20x%3D%22710%22%20y%3D%22804%22%20width%3D%2290%22%20height%3D%2260%22%20as%3D%22geometry%22%2F%3E%3C%2FmxCell%3E%3C%2FUserObject%3E%3C%2Froot%3E%3C%2FmxGraphModel%3E&lt;/span&gt;" lucidchartObjectId="3m2hX9y86cIg" id="Uh_I8GXraJDkrsIi5zB0-96">
          <mxCell style="html=1;overflow=block;blockSpacing=1;whiteSpace=wrap;ellipse;whiteSpace=wrap;fontSize=13.3;fontColor=#ffffff;fontStyle=2;align=center;spacing=0;verticalAlign=middle;strokeColor=#ffffff;strokeOpacity=100;fillOpacity=100;rounded=1;absoluteArcSize=1;arcSize=7.5;fillColor=#3278cc;strokeWidth=0.8;" vertex="1" parent="1">
            <mxGeometry x="800" y="1310" width="90" height="60" as="geometry" />
          </mxCell>
        </UserObject>
        <mxCell id="Uh_I8GXraJDkrsIi5zB0-291" style="edgeStyle=orthogonalEdgeStyle;rounded=0;orthogonalLoop=1;jettySize=auto;html=1;exitX=0.5;exitY=1;exitDx=0;exitDy=0;entryX=1;entryY=0.9;entryDx=0;entryDy=0;entryPerimeter=0;fontFamily=Helvetica;fontSize=16;" edge="1" parent="1" source="Uh_I8GXraJDkrsIi5zB0-97" target="Uh_I8GXraJDkrsIi5zB0-52">
          <mxGeometry relative="1" as="geometry">
            <Array as="points">
              <mxPoint x="935" y="1390" />
              <mxPoint x="1540" y="1390" />
            </Array>
          </mxGeometry>
        </mxCell>
        <UserObject label="Add Measurement&lt;span style=&quot;color: rgba(0 , 0 , 0 , 0) ; font-family: monospace ; font-size: 0px ; font-style: normal&quot;&gt;%3CmxGraphModel%3E%3Croot%3E%3CmxCell%20id%3D%220%22%2F%3E%3CmxCell%20id%3D%221%22%20parent%3D%220%22%2F%3E%3CUserObject%20label%3D%22View%20Workouts%22%20lucidchartObjectId%3D%223m2hX9y86cIg%22%20id%3D%222%22%3E%3CmxCell%20style%3D%22html%3D1%3Boverflow%3Dblock%3BblockSpacing%3D1%3BwhiteSpace%3Dwrap%3Bellipse%3BwhiteSpace%3Dwrap%3BfontSize%3D13.3%3BfontColor%3D%23ffffff%3BfontStyle%3D2%3Balign%3Dcenter%3Bspacing%3D0%3BverticalAlign%3Dmiddle%3BstrokeColor%3D%23ffffff%3BstrokeOpacity%3D100%3BfillOpacity%3D100%3Brounded%3D1%3BabsoluteArcSize%3D1%3BarcSize%3D7.5%3BfillColor%3D%233278cc%3BstrokeWidth%3D0.8%3B%22%20vertex%3D%221%22%20parent%3D%221%22%3E%3CmxGeometry%20x%3D%22710%22%20y%3D%22804%22%20width%3D%2290%22%20height%3D%2260%22%20as%3D%22geometry%22%2F%3E%3C%2FmxCell%3E%3C%2FUserObject%3E%3C%2Froot%3E%3C%2FmxGraphModel%3E&lt;/span&gt;" lucidchartObjectId="3m2hX9y86cIg" id="Uh_I8GXraJDkrsIi5zB0-97">
          <mxCell style="html=1;overflow=block;blockSpacing=1;whiteSpace=wrap;ellipse;whiteSpace=wrap;fontSize=13.3;fontColor=#ffffff;fontStyle=2;align=center;spacing=0;verticalAlign=middle;strokeColor=#ffffff;strokeOpacity=100;fillOpacity=100;rounded=1;absoluteArcSize=1;arcSize=7.5;fillColor=#3278cc;strokeWidth=0.8;" vertex="1" parent="1">
            <mxGeometry x="890" y="1310" width="90" height="60" as="geometry" />
          </mxCell>
        </UserObject>
        <mxCell id="Uh_I8GXraJDkrsIi5zB0-292" style="edgeStyle=orthogonalEdgeStyle;rounded=0;orthogonalLoop=1;jettySize=auto;html=1;exitX=0.5;exitY=1;exitDx=0;exitDy=0;entryX=1;entryY=0.9;entryDx=0;entryDy=0;entryPerimeter=0;fontFamily=Helvetica;fontSize=16;" edge="1" parent="1" source="Uh_I8GXraJDkrsIi5zB0-98" target="Uh_I8GXraJDkrsIi5zB0-52">
          <mxGeometry relative="1" as="geometry">
            <Array as="points">
              <mxPoint x="1025" y="1390" />
              <mxPoint x="1540" y="1390" />
            </Array>
          </mxGeometry>
        </mxCell>
        <UserObject label="Edit Measurement&lt;span style=&quot;color: rgba(0 , 0 , 0 , 0) ; font-family: monospace ; font-size: 0px ; font-style: normal&quot;&gt;%3CmxGraphModel%3E%3Croot%3E%3CmxCell%20id%3D%220%22%2F%3E%3CmxCell%20id%3D%221%22%20parent%3D%220%22%2F%3E%3CUserObject%20label%3D%22View%20Workouts%22%20lucidchartObjectId%3D%223m2hX9y86cIg%22%20id%3D%222%22%3E%3CmxCell%20style%3D%22html%3D1%3Boverflow%3Dblock%3BblockSpacing%3D1%3BwhiteSpace%3Dwrap%3Bellipse%3BwhiteSpace%3Dwrap%3BfontSize%3D13.3%3BfontColor%3D%23ffffff%3BfontStyle%3D2%3Balign%3Dcenter%3Bspacing%3D0%3BverticalAlign%3Dmiddle%3BstrokeColor%3D%23ffffff%3BstrokeOpacity%3D100%3BfillOpacity%3D100%3Brounded%3D1%3BabsoluteArcSize%3D1%3BarcSize%3D7.5%3BfillColor%3D%233278cc%3BstrokeWidth%3D0.8%3B%22%20vertex%3D%221%22%20parent%3D%221%22%3E%3CmxGeometry%20x%3D%22710%22%20y%3D%22804%22%20width%3D%2290%22%20height%3D%2260%22%20as%3D%22geometry%22%2F%3E%3C%2FmxCell%3E%3C%2FUserObject%3E%3C%2Froot%3E%3C%2FmxGraphModel%3E&lt;/span&gt;" lucidchartObjectId="3m2hX9y86cIg" id="Uh_I8GXraJDkrsIi5zB0-98">
          <mxCell style="html=1;overflow=block;blockSpacing=1;whiteSpace=wrap;ellipse;whiteSpace=wrap;fontSize=13.3;fontColor=#ffffff;fontStyle=2;align=center;spacing=0;verticalAlign=middle;strokeColor=#ffffff;strokeOpacity=100;fillOpacity=100;rounded=1;absoluteArcSize=1;arcSize=7.5;fillColor=#3278cc;strokeWidth=0.8;" vertex="1" parent="1">
            <mxGeometry x="980" y="1310" width="90" height="60" as="geometry" />
          </mxCell>
        </UserObject>
        <mxCell id="Uh_I8GXraJDkrsIi5zB0-293" style="edgeStyle=orthogonalEdgeStyle;rounded=0;orthogonalLoop=1;jettySize=auto;html=1;exitX=0.5;exitY=1;exitDx=0;exitDy=0;entryX=1;entryY=0.9;entryDx=0;entryDy=0;entryPerimeter=0;fontFamily=Helvetica;fontSize=16;" edge="1" parent="1" source="Uh_I8GXraJDkrsIi5zB0-99" target="Uh_I8GXraJDkrsIi5zB0-52">
          <mxGeometry relative="1" as="geometry">
            <Array as="points">
              <mxPoint x="1115" y="1390" />
              <mxPoint x="1540" y="1390" />
            </Array>
          </mxGeometry>
        </mxCell>
        <UserObject label="Delete Measurement&lt;span style=&quot;color: rgba(0 , 0 , 0 , 0) ; font-family: monospace ; font-size: 0px ; font-style: normal&quot;&gt;%3CmxGraphModel%3E%3Croot%3E%3CmxCell%20id%3D%220%22%2F%3E%3CmxCell%20id%3D%221%22%20parent%3D%220%22%2F%3E%3CUserObject%20label%3D%22View%20Workouts%22%20lucidchartObjectId%3D%223m2hX9y86cIg%22%20id%3D%222%22%3E%3CmxCell%20style%3D%22html%3D1%3Boverflow%3Dblock%3BblockSpacing%3D1%3BwhiteSpace%3Dwrap%3Bellipse%3BwhiteSpace%3Dwrap%3BfontSize%3D13.3%3BfontColor%3D%23ffffff%3BfontStyle%3D2%3Balign%3Dcenter%3Bspacing%3D0%3BverticalAlign%3Dmiddle%3BstrokeColor%3D%23ffffff%3BstrokeOpacity%3D100%3BfillOpacity%3D100%3Brounded%3D1%3BabsoluteArcSize%3D1%3BarcSize%3D7.5%3BfillColor%3D%233278cc%3BstrokeWidth%3D0.8%3B%22%20vertex%3D%221%22%20parent%3D%221%22%3E%3CmxGeometry%20x%3D%22710%22%20y%3D%22804%22%20width%3D%2290%22%20height%3D%2260%22%20as%3D%22geometry%22%2F%3E%3C%2FmxCell%3E%3C%2FUserObject%3E%3C%2Froot%3E%3C%2FmxGraphModel%3E&lt;/span&gt;" lucidchartObjectId="3m2hX9y86cIg" id="Uh_I8GXraJDkrsIi5zB0-99">
          <mxCell style="html=1;overflow=block;blockSpacing=1;whiteSpace=wrap;ellipse;whiteSpace=wrap;fontSize=13.3;fontColor=#ffffff;fontStyle=2;align=center;spacing=0;verticalAlign=middle;strokeColor=#ffffff;strokeOpacity=100;fillOpacity=100;rounded=1;absoluteArcSize=1;arcSize=7.5;fillColor=#3278cc;strokeWidth=0.8;" vertex="1" parent="1">
            <mxGeometry x="1070" y="1310" width="90" height="60" as="geometry" />
          </mxCell>
        </UserObject>
        <mxCell id="Uh_I8GXraJDkrsIi5zB0-270" style="edgeStyle=orthogonalEdgeStyle;rounded=0;orthogonalLoop=1;jettySize=auto;html=1;exitX=0.5;exitY=1;exitDx=0;exitDy=0;entryX=0;entryY=0.1;entryDx=0;entryDy=0;entryPerimeter=0;fontFamily=Helvetica;fontSize=16;" edge="1" parent="1" source="Uh_I8GXraJDkrsIi5zB0-100" target="Uh_I8GXraJDkrsIi5zB0-52">
          <mxGeometry relative="1" as="geometry">
            <Array as="points">
              <mxPoint x="1025" y="570" />
              <mxPoint x="1420" y="570" />
            </Array>
          </mxGeometry>
        </mxCell>
        <UserObject label="Edit Client" lucidchartObjectId="9h2h2Q9VIjVG" id="Uh_I8GXraJDkrsIi5zB0-100">
          <mxCell style="html=1;overflow=block;blockSpacing=1;whiteSpace=wrap;ellipse;whiteSpace=wrap;fontSize=13.3;fontColor=#ffffff;fontStyle=2;align=center;spacing=0;verticalAlign=middle;strokeColor=#ffffff;strokeOpacity=100;fillOpacity=100;rounded=1;absoluteArcSize=1;arcSize=7.5;fillColor=#3278cc;strokeWidth=0.8;" vertex="1" parent="1">
            <mxGeometry x="980" y="500" width="90" height="60" as="geometry" />
          </mxCell>
        </UserObject>
        <mxCell id="Uh_I8GXraJDkrsIi5zB0-268" style="edgeStyle=orthogonalEdgeStyle;rounded=0;orthogonalLoop=1;jettySize=auto;html=1;exitX=0.5;exitY=1;exitDx=0;exitDy=0;entryX=0;entryY=0.1;entryDx=0;entryDy=0;entryPerimeter=0;fontFamily=Helvetica;fontSize=16;" edge="1" parent="1" source="Uh_I8GXraJDkrsIi5zB0-101" target="Uh_I8GXraJDkrsIi5zB0-52">
          <mxGeometry relative="1" as="geometry">
            <Array as="points">
              <mxPoint x="845" y="570" />
              <mxPoint x="1420" y="570" />
            </Array>
          </mxGeometry>
        </mxCell>
        <UserObject label="View Clients" lucidchartObjectId="3m2hX9y86cIg" id="Uh_I8GXraJDkrsIi5zB0-101">
          <mxCell style="html=1;overflow=block;blockSpacing=1;whiteSpace=wrap;ellipse;whiteSpace=wrap;fontSize=13.3;fontColor=#ffffff;fontStyle=2;align=center;spacing=0;verticalAlign=middle;strokeColor=#ffffff;strokeOpacity=100;fillOpacity=100;rounded=1;absoluteArcSize=1;arcSize=7.5;fillColor=#3278cc;strokeWidth=0.8;" vertex="1" parent="1">
            <mxGeometry x="800" y="500" width="90" height="60" as="geometry" />
          </mxCell>
        </UserObject>
        <mxCell id="Uh_I8GXraJDkrsIi5zB0-271" style="edgeStyle=orthogonalEdgeStyle;rounded=0;orthogonalLoop=1;jettySize=auto;html=1;exitX=0.5;exitY=1;exitDx=0;exitDy=0;entryX=0;entryY=0.1;entryDx=0;entryDy=0;entryPerimeter=0;fontFamily=Helvetica;fontSize=16;" edge="1" parent="1" source="Uh_I8GXraJDkrsIi5zB0-102" target="Uh_I8GXraJDkrsIi5zB0-52">
          <mxGeometry relative="1" as="geometry">
            <Array as="points">
              <mxPoint x="1115" y="570" />
              <mxPoint x="1420" y="570" />
            </Array>
          </mxGeometry>
        </mxCell>
        <UserObject label="Delete Client" lucidchartObjectId="9h2h2Q9VIjVG" id="Uh_I8GXraJDkrsIi5zB0-102">
          <mxCell style="html=1;overflow=block;blockSpacing=1;whiteSpace=wrap;ellipse;whiteSpace=wrap;fontSize=13.3;fontColor=#ffffff;fontStyle=2;align=center;spacing=0;verticalAlign=middle;strokeColor=#ffffff;strokeOpacity=100;fillOpacity=100;rounded=1;absoluteArcSize=1;arcSize=7.5;fillColor=#3278cc;strokeWidth=0.8;" vertex="1" parent="1">
            <mxGeometry x="1070" y="500" width="90" height="60" as="geometry" />
          </mxCell>
        </UserObject>
        <mxCell id="Uh_I8GXraJDkrsIi5zB0-278" style="edgeStyle=orthogonalEdgeStyle;rounded=0;orthogonalLoop=1;jettySize=auto;html=1;exitX=0.5;exitY=1;exitDx=0;exitDy=0;entryX=0;entryY=0.9;entryDx=0;entryDy=0;entryPerimeter=0;fontFamily=Helvetica;fontSize=16;" edge="1" parent="1" source="Uh_I8GXraJDkrsIi5zB0-103" target="Uh_I8GXraJDkrsIi5zB0-52">
          <mxGeometry relative="1" as="geometry">
            <Array as="points">
              <mxPoint x="845" y="830" />
              <mxPoint x="1400" y="830" />
              <mxPoint x="1400" y="851" />
            </Array>
          </mxGeometry>
        </mxCell>
        <UserObject label="View &lt;br&gt;Workouts" lucidchartObjectId="3m2hX9y86cIg" id="Uh_I8GXraJDkrsIi5zB0-103">
          <mxCell style="html=1;overflow=block;blockSpacing=1;whiteSpace=wrap;ellipse;whiteSpace=wrap;fontSize=13.3;fontColor=#ffffff;fontStyle=2;align=center;spacing=0;verticalAlign=middle;strokeColor=#ffffff;strokeOpacity=100;fillOpacity=100;rounded=1;absoluteArcSize=1;arcSize=7.5;fillColor=#3278cc;strokeWidth=0.8;" vertex="1" parent="1">
            <mxGeometry x="800" y="750" width="90" height="60" as="geometry" />
          </mxCell>
        </UserObject>
        <mxCell id="Uh_I8GXraJDkrsIi5zB0-282" style="edgeStyle=orthogonalEdgeStyle;rounded=0;orthogonalLoop=1;jettySize=auto;html=1;exitX=0.5;exitY=1;exitDx=0;exitDy=0;entryX=0;entryY=0.9;entryDx=0;entryDy=0;entryPerimeter=0;fontFamily=Helvetica;fontSize=16;" edge="1" parent="1" source="Uh_I8GXraJDkrsIi5zB0-111" target="Uh_I8GXraJDkrsIi5zB0-52">
          <mxGeometry relative="1" as="geometry">
            <Array as="points">
              <mxPoint x="1205" y="830" />
              <mxPoint x="1400" y="830" />
              <mxPoint x="1400" y="851" />
            </Array>
          </mxGeometry>
        </mxCell>
        <UserObject label="Search Workout" lucidchartObjectId="9h2h2Q9VIjVG" id="Uh_I8GXraJDkrsIi5zB0-111">
          <mxCell style="html=1;overflow=block;blockSpacing=1;whiteSpace=wrap;ellipse;whiteSpace=wrap;fontSize=13.3;fontColor=#ffffff;fontStyle=2;align=center;spacing=0;verticalAlign=middle;strokeColor=#ffffff;strokeOpacity=100;fillOpacity=100;rounded=1;absoluteArcSize=1;arcSize=7.5;fillColor=#3278cc;strokeWidth=0.8;" vertex="1" parent="1">
            <mxGeometry x="1160" y="750" width="90" height="60" as="geometry" />
          </mxCell>
        </UserObject>
        <mxCell id="Uh_I8GXraJDkrsIi5zB0-277" style="edgeStyle=orthogonalEdgeStyle;rounded=0;orthogonalLoop=1;jettySize=auto;html=1;exitX=0.5;exitY=1;exitDx=0;exitDy=0;entryX=0;entryY=0.5;entryDx=0;entryDy=0;entryPerimeter=0;fontFamily=Helvetica;fontSize=16;" edge="1" parent="1" source="Uh_I8GXraJDkrsIi5zB0-112" target="Uh_I8GXraJDkrsIi5zB0-52">
          <mxGeometry relative="1" as="geometry">
            <Array as="points">
              <mxPoint x="1205" y="700" />
              <mxPoint x="1420" y="700" />
            </Array>
          </mxGeometry>
        </mxCell>
        <UserObject label="Search &lt;br&gt;Meal Plan" lucidchartObjectId="9h2h2Q9VIjVG" id="Uh_I8GXraJDkrsIi5zB0-112">
          <mxCell style="html=1;overflow=block;blockSpacing=1;whiteSpace=wrap;ellipse;whiteSpace=wrap;fontSize=13.3;fontColor=#ffffff;fontStyle=2;align=center;spacing=0;verticalAlign=middle;strokeColor=#ffffff;strokeOpacity=100;fillOpacity=100;rounded=1;absoluteArcSize=1;arcSize=7.5;fillColor=#3278cc;strokeWidth=0.8;" vertex="1" parent="1">
            <mxGeometry x="1160" y="630" width="90" height="60" as="geometry" />
          </mxCell>
        </UserObject>
        <mxCell id="Uh_I8GXraJDkrsIi5zB0-272" style="edgeStyle=orthogonalEdgeStyle;rounded=0;orthogonalLoop=1;jettySize=auto;html=1;exitX=0.5;exitY=1;exitDx=0;exitDy=0;entryX=0;entryY=0.1;entryDx=0;entryDy=0;entryPerimeter=0;fontFamily=Helvetica;fontSize=16;" edge="1" parent="1" source="Uh_I8GXraJDkrsIi5zB0-116" target="Uh_I8GXraJDkrsIi5zB0-52">
          <mxGeometry relative="1" as="geometry">
            <Array as="points">
              <mxPoint x="1205" y="570" />
              <mxPoint x="1420" y="570" />
            </Array>
          </mxGeometry>
        </mxCell>
        <UserObject label="Search Client" lucidchartObjectId="9h2h2Q9VIjVG" id="Uh_I8GXraJDkrsIi5zB0-116">
          <mxCell style="html=1;overflow=block;blockSpacing=1;whiteSpace=wrap;ellipse;whiteSpace=wrap;fontSize=13.3;fontColor=#ffffff;fontStyle=2;align=center;spacing=0;verticalAlign=middle;strokeColor=#ffffff;strokeOpacity=100;fillOpacity=100;rounded=1;absoluteArcSize=1;arcSize=7.5;fillColor=#3278cc;strokeWidth=0.8;" vertex="1" parent="1">
            <mxGeometry x="1160" y="500" width="90" height="60" as="geometry" />
          </mxCell>
        </UserObject>
        <mxCell id="Uh_I8GXraJDkrsIi5zB0-273" style="edgeStyle=orthogonalEdgeStyle;rounded=0;orthogonalLoop=1;jettySize=auto;html=1;exitX=0.5;exitY=1;exitDx=0;exitDy=0;entryX=0;entryY=0.5;entryDx=0;entryDy=0;entryPerimeter=0;fontFamily=Helvetica;fontSize=16;" edge="1" parent="1" source="Uh_I8GXraJDkrsIi5zB0-137" target="Uh_I8GXraJDkrsIi5zB0-52">
          <mxGeometry relative="1" as="geometry">
            <Array as="points">
              <mxPoint x="845" y="700" />
              <mxPoint x="1420" y="700" />
            </Array>
          </mxGeometry>
        </mxCell>
        <UserObject label="View &lt;br&gt;Meal Plans" lucidchartObjectId="3m2hX9y86cIg" id="Uh_I8GXraJDkrsIi5zB0-137">
          <mxCell style="html=1;overflow=block;blockSpacing=1;whiteSpace=wrap;ellipse;whiteSpace=wrap;fontSize=13.3;fontColor=#ffffff;fontStyle=2;align=center;spacing=0;verticalAlign=middle;strokeColor=#ffffff;strokeOpacity=100;fillOpacity=100;rounded=1;absoluteArcSize=1;arcSize=7.5;fillColor=#3278cc;strokeWidth=0.8;" vertex="1" parent="1">
            <mxGeometry x="800" y="630" width="90" height="60" as="geometry" />
          </mxCell>
        </UserObject>
        <mxCell id="Uh_I8GXraJDkrsIi5zB0-274" style="edgeStyle=orthogonalEdgeStyle;rounded=0;orthogonalLoop=1;jettySize=auto;html=1;exitX=0.5;exitY=1;exitDx=0;exitDy=0;entryX=0;entryY=0.5;entryDx=0;entryDy=0;entryPerimeter=0;fontFamily=Helvetica;fontSize=16;" edge="1" parent="1" source="Uh_I8GXraJDkrsIi5zB0-138" target="Uh_I8GXraJDkrsIi5zB0-52">
          <mxGeometry relative="1" as="geometry">
            <Array as="points">
              <mxPoint x="935" y="700" />
              <mxPoint x="1420" y="700" />
            </Array>
          </mxGeometry>
        </mxCell>
        <UserObject label="Add &#xa;Meal Plan" lucidchartObjectId="ln2hPX6e3C_s" id="Uh_I8GXraJDkrsIi5zB0-138">
          <mxCell style="html=1;overflow=block;blockSpacing=1;whiteSpace=wrap;ellipse;whiteSpace=wrap;fontSize=13.3;fontColor=#ffffff;fontStyle=2;align=center;spacing=0;verticalAlign=middle;strokeColor=#ffffff;strokeOpacity=100;fillOpacity=100;rounded=1;absoluteArcSize=1;arcSize=7.5;fillColor=#3278cc;strokeWidth=0.8;" vertex="1" parent="1">
            <mxGeometry x="890" y="630" width="90" height="60" as="geometry" />
          </mxCell>
        </UserObject>
        <mxCell id="Uh_I8GXraJDkrsIi5zB0-275" style="edgeStyle=orthogonalEdgeStyle;rounded=0;orthogonalLoop=1;jettySize=auto;html=1;exitX=0.5;exitY=1;exitDx=0;exitDy=0;entryX=0;entryY=0.5;entryDx=0;entryDy=0;entryPerimeter=0;fontFamily=Helvetica;fontSize=16;" edge="1" parent="1" source="Uh_I8GXraJDkrsIi5zB0-139" target="Uh_I8GXraJDkrsIi5zB0-52">
          <mxGeometry relative="1" as="geometry">
            <Array as="points">
              <mxPoint x="1025" y="700" />
              <mxPoint x="1420" y="700" />
            </Array>
          </mxGeometry>
        </mxCell>
        <UserObject label="Edit &#xa;Meal Plan" lucidchartObjectId="mp2hTffikb1D" id="Uh_I8GXraJDkrsIi5zB0-139">
          <mxCell style="html=1;overflow=block;blockSpacing=1;whiteSpace=wrap;ellipse;whiteSpace=wrap;fontSize=13.3;fontColor=#ffffff;fontStyle=2;align=center;spacing=0;verticalAlign=middle;strokeColor=#ffffff;strokeOpacity=100;fillOpacity=100;rounded=1;absoluteArcSize=1;arcSize=7.5;fillColor=#3278cc;strokeWidth=0.8;" vertex="1" parent="1">
            <mxGeometry x="980" y="630" width="90" height="60" as="geometry" />
          </mxCell>
        </UserObject>
        <mxCell id="Uh_I8GXraJDkrsIi5zB0-151" style="edgeStyle=orthogonalEdgeStyle;rounded=0;orthogonalLoop=1;jettySize=auto;html=1;exitX=0.5;exitY=0.5;exitDx=0;exitDy=0;exitPerimeter=0;entryX=0.5;entryY=0;entryDx=0;entryDy=0;fontFamily=Helvetica;fontSize=16;" edge="1" parent="1" target="Uh_I8GXraJDkrsIi5zB0-92">
          <mxGeometry relative="1" as="geometry">
            <mxPoint x="285" y="910" as="sourcePoint" />
            <mxPoint x="836.25" y="1150" as="targetPoint" />
            <Array as="points">
              <mxPoint x="760" y="910" />
              <mxPoint x="760" y="1410" />
              <mxPoint x="1115" y="1410" />
            </Array>
          </mxGeometry>
        </mxCell>
        <mxCell id="Uh_I8GXraJDkrsIi5zB0-152" style="edgeStyle=orthogonalEdgeStyle;rounded=0;orthogonalLoop=1;jettySize=auto;html=1;exitX=0.5;exitY=0.5;exitDx=0;exitDy=0;exitPerimeter=0;entryX=0.5;entryY=0;entryDx=0;entryDy=0;fontFamily=Helvetica;fontSize=16;" edge="1" parent="1" target="Uh_I8GXraJDkrsIi5zB0-91">
          <mxGeometry relative="1" as="geometry">
            <mxPoint x="285" y="910" as="sourcePoint" />
            <mxPoint x="746.25" y="1150" as="targetPoint" />
            <Array as="points">
              <mxPoint x="760" y="910" />
              <mxPoint x="760" y="1410" />
              <mxPoint x="1025" y="1410" />
            </Array>
          </mxGeometry>
        </mxCell>
        <mxCell id="Uh_I8GXraJDkrsIi5zB0-153" style="edgeStyle=orthogonalEdgeStyle;rounded=0;orthogonalLoop=1;jettySize=auto;html=1;exitX=0.5;exitY=0.5;exitDx=0;exitDy=0;exitPerimeter=0;fontFamily=Helvetica;fontSize=16;entryX=0.5;entryY=0;entryDx=0;entryDy=0;" edge="1" parent="1" target="Uh_I8GXraJDkrsIi5zB0-90">
          <mxGeometry relative="1" as="geometry">
            <mxPoint x="285" y="910" as="sourcePoint" />
            <mxPoint x="656" y="1150" as="targetPoint" />
            <Array as="points">
              <mxPoint x="760" y="910" />
              <mxPoint x="760" y="1410" />
              <mxPoint x="935" y="1410" />
            </Array>
          </mxGeometry>
        </mxCell>
        <mxCell id="Uh_I8GXraJDkrsIi5zB0-154" style="edgeStyle=orthogonalEdgeStyle;rounded=0;orthogonalLoop=1;jettySize=auto;html=1;exitX=0.5;exitY=0.5;exitDx=0;exitDy=0;exitPerimeter=0;entryX=0.5;entryY=0;entryDx=0;entryDy=0;fontFamily=Helvetica;fontSize=16;" edge="1" parent="1" target="Uh_I8GXraJDkrsIi5zB0-89">
          <mxGeometry relative="1" as="geometry">
            <mxPoint x="285" y="910" as="sourcePoint" />
            <mxPoint x="566.25" y="1150" as="targetPoint" />
            <Array as="points">
              <mxPoint x="760" y="910" />
              <mxPoint x="760" y="1410" />
              <mxPoint x="845" y="1410" />
            </Array>
          </mxGeometry>
        </mxCell>
        <UserObject label="Logout" lucidchartObjectId=".Q4MeaXKLHhP" id="Uh_I8GXraJDkrsIi5zB0-221">
          <mxCell style="html=1;overflow=block;blockSpacing=1;whiteSpace=wrap;ellipse;whiteSpace=wrap;fontSize=13.3;fontColor=#ffffff;fontStyle=2;align=center;spacing=0;verticalAlign=middle;strokeColor=#ffffff;strokeOpacity=100;fillOpacity=100;rounded=1;absoluteArcSize=1;arcSize=7.5;fillColor=#3278cc;strokeWidth=0.8;" vertex="1" parent="1">
            <mxGeometry x="520" y="750" width="90" height="60" as="geometry" />
          </mxCell>
        </UserObject>
      </root>
    </mxGraphModel>
  </diagram>
</mxfile>
